<svg id="Layer_2" data-name="Layer 2" xmlns="http://www.w3.org/2000/svg" viewBox="0 0 110 141">
  <defs>
    <style>
      .cls-1 {
        fill: #00a99d;
      }
    </style>
  </defs>
  <title>address-book</title>
  <path class="cls-1" d="M155.18,69.18a5,5,0,0,0,5-5v-18a5,5,0,0,0-5-5h-5a12,12,0,0,0-12-12h-76a12,12,0,0,0-12,12v117a12,12,0,0,0,12,12h76a12,12,0,0,0,12-12v-21h5a5,5,0,0,0,5-5v-18a5,5,0,0,0-5-5h-5v-6h5a5,5,0,0,0,5-5v-18a5,5,0,0,0-5-5h-5v-6ZM100.18,51c11.12,0,20.14,9.27,20.14,20.71s-9,20.72-20.14,20.72S80,83.14,80,71.7,89.06,51,100.18,51Zm-2,95.19a3,3,0,0,1-3,3h-22a3,3,0,0,1-3-3v-2a3,3,0,0,1,3-3h22a3,3,0,0,1,3,3Zm-27-23v-7.83c0-10.46,8.32-19,18.49-19h21c10.17,0,18.49,8.56,18.49,19v7.83a70.82,70.82,0,0,1-58,0Zm59,23a3,3,0,0,1-3,3h-22a3,3,0,0,1-3-3v-2a3,3,0,0,1,3-3h22a3,3,0,0,1,3,3Z" transform="translate(-50.18 -29.18)"/>
</svg>
