<svg id="Layer_2" data-name="Layer 2" xmlns="http://www.w3.org/2000/svg" viewBox="0 0 167 153">
  <title>basket</title>
  <path d="M166.68,77.18h-133a17,17,0,0,0-5.86,32.93l18.59,65.07H152.95l18.48-64.69a17,17,0,0,0-4.75-33.31Zm.46,24-1,.06v0h-10a2,2,0,0,0-2,2v6a2,2,0,0,0,2,2h4.66l-15.43,54H53.95l-15.42-54h3.65a2,2,0,0,0,2-2v-6a2,2,0,0,0-2-2H33.26l-.64-.1A7,7,0,0,1,27,91.95a7.17,7.17,0,0,1,6.85-4.77H166.42A7.18,7.18,0,0,1,173.58,93,7,7,0,0,1,167.14,101.15Z" transform="translate(-16.68 -22.18)"/>
  <path d="M147.52,33a15.08,15.08,0,0,0-14.39-10.77H67.23A15.08,15.08,0,0,0,52.84,32.95L40.73,74.18H51.15L62.43,35.77a5,5,0,0,1,4.8-3.59h65.9a5,5,0,0,1,4.8,3.59L149.2,74.18h10.42Z" transform="translate(-16.68 -22.18)"/>
  <g>
    <path d="M138.18,157.18a3,3,0,0,1-3-3v-54a3,3,0,0,1,6,0v54A3,3,0,0,1,138.18,157.18Z" transform="translate(-16.68 -22.18)"/>
    <path d="M119.18,157.18a3,3,0,0,1-3-3v-54a3,3,0,0,1,6,0v54A3,3,0,0,1,119.18,157.18Z" transform="translate(-16.68 -22.18)"/>
    <path d="M100.18,157.18a3,3,0,0,1-3-3v-54a3,3,0,0,1,6,0v54A3,3,0,0,1,100.18,157.18Z" transform="translate(-16.68 -22.18)"/>
    <path d="M81.18,157.18a3,3,0,0,1-3-3v-54a3,3,0,0,1,6,0v54A3,3,0,0,1,81.18,157.18Z" transform="translate(-16.68 -22.18)"/>
    <path d="M62.18,157.18a3,3,0,0,1-3-3v-54a3,3,0,0,1,6,0v54A3,3,0,0,1,62.18,157.18Z" transform="translate(-16.68 -22.18)"/>
  </g>
</svg>
