<svg id="Layer_2" data-name="Layer 2" xmlns="http://www.w3.org/2000/svg" viewBox="0 0 167 153">
  <title>basket-solid</title>
  <path d="M166.68,77.18h-133a17,17,0,0,0-5.86,32.93l18.59,65.07H152.95l18.48-64.69a17,17,0,0,0-4.75-33.31Zm-101.5,77a3,3,0,0,1-6,0v-54a3,3,0,0,1,6,0Zm19,0a3,3,0,0,1-6,0v-54a3,3,0,0,1,6,0Zm19,0a3,3,0,0,1-6,0v-54a3,3,0,0,1,6,0Zm19,0a3,3,0,0,1-6,0v-54a3,3,0,0,1,6,0Zm19,0a3,3,0,0,1-6,0v-54a3,3,0,0,1,6,0Z" transform="translate(-16.68 -22.18)"/>
  <path d="M147.52,33a15.08,15.08,0,0,0-14.39-10.77H67.23A15.08,15.08,0,0,0,52.84,32.95L40.73,74.18H51.15L62.43,35.77a5,5,0,0,1,4.8-3.59h65.9a5,5,0,0,1,4.8,3.59L149.2,74.18h10.42Z" transform="translate(-16.68 -22.18)"/>
</svg>
