<?xml version="1.0" encoding="utf-8"?>
<!-- Generator: Adobe Illustrator 22.1.0, SVG Export Plug-In . SVG Version: 6.00 Build 0)  -->
<svg version="1.1" id="Capa_1" xmlns="http://www.w3.org/2000/svg" xmlns:xlink="http://www.w3.org/1999/xlink" x="0px" y="0px"
	 viewBox="0 0 512 512" style="enable-background:new 0 0 512 512;" xml:space="preserve">
<g>
	<path d="M512,263.8H76V58.5C76,42.8,88.8,30,104.5,30c15.7,0,28.5,12.8,28.5,28.5v1.8c-20.1,6.4-34.7,25.2-34.7,47.3v33.7h99.3
		v-33.7c0-22.2-14.6-41-34.7-47.3v-1.8C163,26.2,136.8,0,104.5,0S46,26.2,46,58.5v205.3H0v57.8h16v30V362v10
		c0,77.2,62.8,140,140,140h195.8c77.2,0,140-62.8,140-140v-10v-10.5v-30H512V263.8z"/>
	<path d="M116,160.8c-8.3,0-15,16.4-15,24.7c0,8.3,6.7,15,15,15s15-6.7,15-15C131,177.2,124.3,160.8,116,160.8z"/>
	<path d="M116,216.3c-8.3,0-15,16.4-15,24.7s6.7,15,15,15s15-6.7,15-15S124.3,216.3,116,216.3z"/>
	<path d="M154,160.8c-8.3,0-15,16.4-15,24.7c0,8.3,6.7,15,15,15s15-6.7,15-15C169,177.2,162.3,160.8,154,160.8z"/>
	<path d="M154,216.3c-8.3,0-15,16.4-15,24.7s6.7,15,15,15s15-6.7,15-15S162.3,216.3,154,216.3z"/>
	<path d="M191,160.8c-8.3,0-15,16.4-15,24.7c0,8.3,6.7,15,15,15s15-6.7,15-15C206,177.2,199.3,160.8,191,160.8z"/>
	<path d="M191,216.3c-8.3,0-15,16.4-15,24.7s6.7,15,15,15s15-6.7,15-15S199.3,216.3,191,216.3z"/>
</g>
</svg>
