<svg id="bell" xmlns="http://www.w3.org/2000/svg" viewBox="0 0 128.83 141.46"><defs><style>.cls-1{fill:#069069;}</style></defs><title>bell-mute</title><path class="cls-1" d="M85.71,58.06A35.44,35.44,0,0,1,100.16,55a35.81,35.81,0,0,1,6.84.66,34.88,34.88,0,0,1,7.64,2.42,35.7,35.7,0,0,1,21.19,32.58v18.92a43.8,43.8,0,0,0,1.34,10.63l15.59,15.59-5.14-10.26a36,36,0,0,1-3.79-16V90.66a43.74,43.74,0,0,0-28.67-41V43.87a14.52,14.52,0,0,0-14.5-14.5h-1a14.52,14.52,0,0,0-14.5,14.5v5.77A43.46,43.46,0,0,0,73.27,56.3L79,62A35.39,35.39,0,0,1,85.71,58.06ZM93.2,43.87a6.51,6.51,0,0,1,6.5-6.5h1a6.51,6.51,0,0,1,6.5,6.5v3.69a43.69,43.69,0,0,0-7-.56,44.37,44.37,0,0,0-7,.55Z" transform="translate(-36.76 -29.37)"/><path class="cls-1" d="M124,141h-70l5.72-10.76a44.51,44.51,0,0,0,5.2-22.1l-.49-17.55a34.5,34.5,0,0,1,1-8.18L59,76a43.18,43.18,0,0,0-2.54,14.66L57,108.38a36.54,36.54,0,0,1-4.26,18.12L44.49,142a4.76,4.76,0,0,0,.12,4.72A4.83,4.83,0,0,0,48.72,149H81.31a18.86,18.86,0,0,0-.2,2.73,19.07,19.07,0,1,0,38.14,0A18.86,18.86,0,0,0,119,149h13Zm-23.87,21.81A11.09,11.09,0,0,1,89.45,149h21.46a11.09,11.09,0,0,1-10.73,13.81Z" transform="translate(-36.76 -29.37)"/><path class="cls-1" d="M165.3,159.64,154,148.38l-7.84-7.84L73.11,67.45l-5.67-5.67L42.72,37.06a1,1,0,0,0-1.42,0L37.06,41.3a1,1,0,0,0,0,1.42L62.65,68.31l5.88,5.88L135.36,141l8,8,16.28,16.28a1,1,0,0,0,1.42,0l4.24-4.24A1,1,0,0,0,165.3,159.64Z" transform="translate(-36.76 -29.37)"/></svg>