<svg id="bell-solid" xmlns="http://www.w3.org/2000/svg" viewBox="0 0 128.83 141.46"><defs><style>.cls-1{fill:#069069;}</style></defs><title>bell-mute-solid</title><path class="cls-1" d="M132,149,59,76a43.42,43.42,0,0,0-2.53,14.66L57,108.38a36.54,36.54,0,0,1-4.26,18.12L44.49,142a4.76,4.76,0,0,0,.12,4.72A4.83,4.83,0,0,0,48.72,149H81.31a18.86,18.86,0,0,0-.2,2.73,19.07,19.07,0,1,0,38.14,0A18.86,18.86,0,0,0,119,149Zm-31.87,13.81A11.09,11.09,0,0,1,89.45,149h21.46a11.09,11.09,0,0,1-10.73,13.81Zm47.45-37.29a36,36,0,0,1-3.79-16V90.66a43.74,43.74,0,0,0-28.67-41V43.87a14.52,14.52,0,0,0-14.5-14.5h-1a14.52,14.52,0,0,0-14.5,14.5v5.77A43.46,43.46,0,0,0,73.27,56.3l79.5,79.5Zm-40.47-78a43.69,43.69,0,0,0-7-.56,44.37,44.37,0,0,0-7,.55V43.87a6.51,6.51,0,0,1,6.5-6.5h1a6.51,6.51,0,0,1,6.5,6.5Z" transform="translate(-36.76 -29.37)"/><path class="cls-1" d="M165.3,161.06l-4.24,4.24a1,1,0,0,1-1.42,0L135.36,141,68.53,74.19l-5.88-5.88L37.06,42.72a1,1,0,0,1,0-1.42l4.24-4.24a1,1,0,0,1,1.42,0L67.44,61.78l78.76,78.76,7.84,7.84,11.26,11.26A1,1,0,0,1,165.3,161.06Z" transform="translate(-36.76 -29.37)"/></svg>