<svg id="bell" xmlns="http://www.w3.org/2000/svg" viewBox="0 0 112.51 141.46"><defs><style>.cls-1{fill:#069069;}</style></defs><title>bell</title><path class="cls-1" d="M155.92,142.08l-8.29-16.54a36,36,0,0,1-3.79-16V90.66a43.74,43.74,0,0,0-28.67-41V43.87a14.52,14.52,0,0,0-14.5-14.5h-1a14.52,14.52,0,0,0-14.5,14.5v5.77a43.73,43.73,0,0,0-28.71,41L57,108.38a36.54,36.54,0,0,1-4.26,18.12L44.49,142a4.76,4.76,0,0,0,.12,4.72A4.83,4.83,0,0,0,48.72,149H81.31a18.86,18.86,0,0,0-.2,2.73,19.07,19.07,0,1,0,38.14,0A18.86,18.86,0,0,0,119,149h32.59a4.79,4.79,0,0,0,4.28-6.94ZM93.2,43.87a6.51,6.51,0,0,1,6.5-6.5h1a6.51,6.51,0,0,1,6.5,6.5v3.69a43.69,43.69,0,0,0-7-.56,44.37,44.37,0,0,0-7,.55Zm18,107.88A11.07,11.07,0,1,1,89.45,149h21.46A11.16,11.16,0,0,1,111.25,151.75ZM115.93,141H54.06l5.72-10.76a44.51,44.51,0,0,0,5.2-22.1l-.49-17.55A35.71,35.71,0,0,1,85.71,58.06,35.44,35.44,0,0,1,100.16,55a35.81,35.81,0,0,1,6.84.66,34.88,34.88,0,0,1,7.64,2.42,35.7,35.7,0,0,1,21.19,32.58v18.92a43.89,43.89,0,0,0,4.64,19.54l6,11.9Z" transform="translate(-43.92 -29.37)"/></svg>