<?xml version="1.0" encoding="utf-8"?>
<!-- Generator: Adobe Illustrator 22.1.0, SVG Export Plug-In . SVG Version: 6.00 Build 0)  -->
<svg version="1.1" id="Capa_1" xmlns="http://www.w3.org/2000/svg" xmlns:xlink="http://www.w3.org/1999/xlink" x="0px" y="0px"
	 viewBox="0 0 511.6 511.6" style="enable-background:new 0 0 511.6 511.6;" xml:space="preserve">
<path d="M500.9,193.3c-7.1-7.1-15.8-10.7-25.8-10.7h0V72.9c0-9.9-3.6-18.5-10.8-25.7c-7.2-7.2-15.8-10.8-25.7-10.8
	C350.8,109.5,265.5,146,182.7,146h-137c-12.6,0-23.3,4.5-32.3,13.4C4.5,168.4,0,179.1,0,191.7v54.8c0,12.6,4.5,23.3,13.4,32.3
	c8.9,9,19.7,13.4,32.3,13.4h34.8c-3.2,10.3-5.3,20.8-6.3,31.5c-0.9,10.8-1.3,20.1-1,28.1c0.3,8,1.7,17.6,4.3,28.8
	c2.6,11.2,4.8,19.7,6.6,25.4c1.8,5.7,4.9,14.7,9.1,27c4.3,12.3,7.1,20.6,8.4,25c8.8,8,21.3,13.3,37.7,15.8
	c16.4,2.6,32.4,1.5,48.1-3.3c15.7-4.8,26.3-12.7,31.8-23.7c-7.2-5.7-13.1-10.5-17.6-14.4c-4.5-3.9-9-8.7-13.7-14.3
	c-4.7-5.6-7.8-10.8-9.6-15.7c-1.7-4.9-2.3-10.4-1.7-16.6c0.6-6.2,2.8-12.4,6.6-18.7c-7.2-7.4-11-16.2-11.4-26.4
	c-0.4-10.2,2.6-19.7,8.9-28.7c6.3-8.9,14.9-15.2,26-18.8c75.2,6.3,152.5,42.4,231.8,108.5c9.9,0,18.5-3.6,25.7-10.9
	c7.2-7.2,10.8-15.8,10.8-25.7V255.6c10.1,0,18.7-3.6,25.8-10.7c7.1-7.1,10.7-15.8,10.7-25.8C511.6,209,508.1,200.4,500.9,193.3z
	 M438.5,355c-59.4-45.4-118-75.3-175.7-89.5c-30.3-27.3-29.8-65.9-2.2-92.2c58.1-14,117.4-44.2,177.9-90.6V355z"/>
</svg>
