<svg id="Layer_2" data-name="Layer 2" xmlns="http://www.w3.org/2000/svg" viewBox="0 0 160.91 167.83">
  <defs>
    <style>
      .cls-1 {
        fill: #009245;
      }
    </style>
  </defs>
  <title>cart</title>
  <g>
    <path class="cls-1" d="M53.18,141.18a18,18,0,1,0,18,18A18,18,0,0,0,53.18,141.18Zm0,26a8,8,0,1,1,8-8A8,8,0,0,1,53.18,167.18Z" transform="translate(-10.27 -9.34)"/>
    <path class="cls-1" d="M153.18,140.18a18,18,0,1,0,18,18A18,18,0,0,0,153.18,140.18Zm0,26a8,8,0,1,1,8-8A8,8,0,0,1,153.18,166.18Z" transform="translate(-10.27 -9.34)"/>
    <path class="cls-1" d="M48.32,138.18c13.17,0,90.82-.88,111.37-1.12a5,5,0,0,0,4.93-5v0a5,5,0,0,0-5-4.93c-20.15.23-95.16,1.08-110.43,1.12-1.33-2-2.33-7.77-3.11-14.63l3.48,0c54.82,0,96.53-9.13,112.44-24.78,5.08-5,7.66-10.62,7.66-16.7q0-2,0-3.9c0-12.79.06-19.83-4.68-24.58-3.91-3.93-9.77-4.71-18-4.71H36.35C32.59,26.17,26.92,15.67,18,10.11a5,5,0,0,0-7.42,2.61h0a5,5,0,0,0,2.1,5.88C29.24,28.91,32.22,67.35,34.43,95.9,36.47,122.27,37.7,138.18,48.32,138.18ZM147,48.9c3.91,0,9.28.18,10.87,1.77,1.81,1.81,1.79,8.39,1.76,17.49q0,1.87,0,3.93c0,3.35-1.53,6.48-4.67,9.57C140.66,95.72,98.73,104,45.07,103.55c-.25-2.89-.47-5.76-.67-8.42-1.16-15-2.44-31.51-5.55-46.24Z" transform="translate(-10.27 -9.34)"/>
  </g>
</svg>
