<svg id="Layer_2" data-name="Layer 2" xmlns="http://www.w3.org/2000/svg" viewBox="0 0 160.9 167.83">
  <defs>
    <style>
      .cls-1 {
        fill: #009245;
      }
    </style>
  </defs>
  <title>cart-solid</title>
  <g>
    <path class="cls-1" d="M71.18,159.18a18,18,0,1,1-18-18A18,18,0,0,1,71.18,159.18Z" transform="translate(-10.28 -9.34)"/>
    <path class="cls-1" d="M171.18,158.18a18,18,0,1,1-18-18A18,18,0,0,1,171.18,158.18Z" transform="translate(-10.28 -9.34)"/>
    <path class="cls-1" d="M169.63,68.2v3.89c0,6.09-2.58,11.71-7.66,16.71C146,104.45,104.34,113.58,49.52,113.58l-3.48,0c.79,6.86,1.78,12.64,3.12,14.63,15.26,0,90.28-.89,110.43-1.12a5,5,0,0,1,5,4.94h0a5,5,0,0,1-4.93,5.05c-20.56.24-98.21,1.12-111.38,1.12-10.62,0-11.85-15.91-13.89-42.27-2.21-28.56-5.19-67-21.78-77.31a5,5,0,0,1-2.37-4.25,5.11,5.11,0,0,1,.27-1.63A5,5,0,0,1,18,10.11c9,5.56,14.63,16.06,18.39,28.79H147c8.18,0,14,.79,18,4.71C169.69,48.37,169.67,55.41,169.63,68.2Z" transform="translate(-10.28 -9.34)"/>
  </g>
</svg>
