<svg id="navicon" xmlns="http://www.w3.org/2000/svg" viewBox="0 0 120.82 120.83"><defs><style>.cls-1{fill:#009245;}</style></defs><title>close-solid</title><path class="cls-1" d="M117.15,100.18,158,59.37a9,9,0,0,0,0-12.73l-4.25-4.25a9,9,0,0,0-12.72,0L100.18,83.21,59.37,42.4a9,9,0,0,0-12.73,0L42.4,46.64a9,9,0,0,0,0,12.73l40.81,40.81L42.4,141a9,9,0,0,0,0,12.73L46.64,158a9,9,0,0,0,12.73,0l40.81-40.81L141,158a9,9,0,0,0,12.73,0l4.24-4.24A9,9,0,0,0,158,141Z" transform="translate(-39.77 -39.76)"/></svg>