<?xml version="1.0" encoding="utf-8"?>
<!-- Generator: Adobe Illustrator 21.1.0, SVG Export Plug-In . SVG Version: 6.00 Build 0)  -->
<svg version="1.1" id="navicon" xmlns="http://www.w3.org/2000/svg" xmlns:xlink="http://www.w3.org/1999/xlink" x="0px" y="0px"
	 viewBox="0 0 200.4 200.4" style="enable-background:new 0 0 200.4 200.4;" xml:space="preserve">
<style type="text/css">
	.st0{fill:#009245;}
</style>
<path class="st0" d="M158,141c3.5,3.5,3.5,9.2,0,12.7l-4.2,4.2c-1.7,1.7-4,2.6-6.4,2.6c-2.4,0-4.7-0.9-6.4-2.6l-40.8-40.8L59.4,158
	c-1.7,1.7-4,2.6-6.4,2.6c-2.4,0-4.7-0.9-6.4-2.6l-4.2-4.2c-3.5-3.5-3.5-9.2,0-12.7l40.8-40.8L42.4,59.4c-3.5-3.5-3.5-9.2,0-12.7
	l4.2-4.2c1.7-1.7,4-2.6,6.4-2.6c2.4,0,4.7,0.9,6.4,2.6l40.8,40.8L141,42.4c1.7-1.7,4-2.6,6.4-2.6c2.4,0,4.7,0.9,6.4,2.6l4.3,4.3
	c3.5,3.5,3.5,9.2,0,12.7l-40.8,40.8L158,141z"/>
</svg>
