<?xml version="1.0" encoding="utf-8"?>
<!-- Generator: Adobe Illustrator 22.1.0, SVG Export Plug-In . SVG Version: 6.00 Build 0)  -->
<svg version="1.1" id="Layer_1" xmlns="http://www.w3.org/2000/svg" xmlns:xlink="http://www.w3.org/1999/xlink" x="0px" y="0px"
	 viewBox="0 0 470 470" style="enable-background:new 0 0 470 470;" xml:space="preserve">
<g>
	<path d="M206,396.9V283.5c0-5.1-4.2-9.3-9.3-9.3h-47.9c-5.1,0-9.3,4.2-9.3,9.3c0,5.1,4.2,9.3,9.3,9.3h38.6v104.2
		c-14.1,4.1-23.9,17.1-23.9,31.9c0,18.3,14.9,33.2,33.2,33.2s33.2-14.9,33.2-33.2C229.9,414,220.1,401,206,396.9z M211.4,428.8
		c0,8.1-6.6,14.7-14.7,14.7s-14.7-6.6-14.7-14.7s6.6-14.7,14.7-14.7S211.4,420.7,211.4,428.8z"/>
	<path d="M282.6,396.9V283.5c0-5.1-4.2-9.3-9.3-9.3h-47.9c-5.1,0-9.3,4.2-9.3,9.3c0,5.1,4.2,9.3,9.3,9.3H264v104.2
		c-14.1,4.1-23.9,17.1-23.9,31.9c0,18.3,14.9,33.2,33.2,33.2s33.2-14.9,33.2-33.2C306.5,414,296.7,401,282.6,396.9z M287.9,428.8
		c0,8.1-6.6,14.7-14.7,14.7s-14.7-6.6-14.7-14.7s6.6-14.7,14.7-14.7S287.9,420.7,287.9,428.8z"/>
	<path d="M402.5,347.8c-14.8,0-27.8,9.8-31.9,23.9h-11.5v-88.2c0-5.1-4.2-9.3-9.3-9.3H302c-5.1,0-9.3,4.2-9.3,9.3
		c0,5.1,4.2,9.3,9.3,9.3h38.6V381c0,5.1,4.2,9.3,9.3,9.3h20.8c4.1,14.1,17.1,23.9,31.9,23.9c18.3,0,33.2-14.9,33.2-33.2
		S420.8,347.8,402.5,347.8z M417.1,381c0,8.1-6.6,14.7-14.7,14.7s-14.7-6.6-14.7-14.7s6.6-14.7,14.7-14.7S417.1,372.9,417.1,381z"/>
	<path d="M444.4,163.4c-9.5-11.8-22.6-20.9-37.1-25.7c-2-33.9-16.4-65.7-40.6-89.7c-26-25.8-60.5-40-97.1-40
		c-23.6,0-46.9,6.1-67.5,17.6c-20,11.2-37.1,27.4-49.3,46.9c-5.7-1.6-11.7-2.5-17.7-2.5c-29.5,0-55.6,20.7-62.4,49.3
		C34.6,129.8,8,164.8,8,204.5c0,48.7,39.6,88.3,88.3,88.3h14.6v78.9H99.4c-4.1-14.1-17.1-23.9-31.9-23.9
		c-18.3,0-33.2,14.9-33.2,33.2s14.9,33.2,33.2,33.2c14.8,0,27.8-9.8,31.9-23.9h20.8c5.1,0,9.3-4.2,9.3-9.3v-97.5
		c0-5.1-4.2-9.3-9.3-9.3H96.3c-38.5,0-69.8-31.3-69.8-69.8c0-33.2,23.6-62,56.1-68.4c3.9-0.8,6.9-3.9,7.4-7.9
		c3-22.6,22.4-39.6,45.2-39.6c6.3,0,12.4,1.3,18.1,3.7c1.2,0.5,2.4,0.8,3.7,0.8c3.4,0,6.5-1.8,8.1-4.8
		c21.1-38.1,61.1-61.7,104.6-61.7c65.3,0,118.8,53.1,119.4,118.3c0,4.3,3,8,7.2,8.9c27.8,6.4,47.2,30.9,47.2,59.4
		c0,33.6-27.4,61-61,61h-3.9c-5.1,0-9.3,4.2-9.3,9.3c0,5.1,4.2,9.3,9.3,9.3h3.9c43.9,0,79.5-35.7,79.5-79.5
		C462,195.1,455.8,177.5,444.4,163.4z M82.2,381c0,8.1-6.6,14.7-14.7,14.7S52.9,389,52.9,381s6.6-14.7,14.7-14.7
		S82.2,372.9,82.2,381z"/>
	<path d="M345.3,116.7c3.6,9.1,5.4,18.7,5.5,28.6c0,5.1,4.2,9.2,9.3,9.2l0.1,0c5.1,0,9.2-4.2,9.2-9.4c-0.1-12.1-2.4-23.9-6.8-35.1
		c-1.4-3.6-4.8-5.9-8.6-5.9c-1.2,0-2.3,0.2-3.4,0.6C345.8,106.5,343.4,111.9,345.3,116.7z"/>
	<path d="M269.7,46.3c-5.1,0-9.3,4.2-9.3,9.3s4.2,9.3,9.3,9.3c24.2,0,47,10.8,62.6,29.6c1.8,2.1,4.4,3.4,7.2,3.4
		c2.1,0,4.2-0.8,5.9-2.1c3.9-3.3,4.5-9.1,1.2-13.1C327.4,59.5,299.4,46.3,269.7,46.3z"/>
</g>
</svg>
