<?xml version="1.0" encoding="utf-8"?>
<!-- Generator: Adobe Illustrator 21.1.0, SVG Export Plug-In . SVG Version: 6.00 Build 0)  -->
<svg version="1.1" id="Layer_2" xmlns="http://www.w3.org/2000/svg" xmlns:xlink="http://www.w3.org/1999/xlink" x="0px" y="0px"
	 viewBox="0 0 193.4 150" style="enable-background:new 0 0 193.4 150;" xml:space="preserve">
<style type="text/css">
	.st0{fill:#F15A24;}
</style>
<path class="st0" d="M193.4,101c0,13.7-10.5,24.8-23.9,25.9v0.1H51v0c-28.2-0.5-51-23.6-51-52c0-28.7,23.3-52,52-52
	c17.3,0,32.6,8.5,42.1,21.5c6.5-5,14.6-8,23.4-8c21.3,0,38.5,17.2,38.5,38.5c0,0.9,0,1.8-0.1,2.7c3.5-1.7,7.4-2.7,11.5-2.7
	C181.8,75,193.4,86.6,193.4,101z"/>
</svg>
