<?xml version="1.0" encoding="utf-8"?>
<!-- Generator: Adobe Illustrator 21.1.0, SVG Export Plug-In . SVG Version: 6.00 Build 0)  -->
<svg version="1.1" id="Layer_2" xmlns="http://www.w3.org/2000/svg" xmlns:xlink="http://www.w3.org/1999/xlink" x="0px" y="0px"
	 viewBox="0 0 193.4 150" style="enable-background:new 0 0 193.4 150;" xml:space="preserve">
<style type="text/css">
	.st0{fill:#F15A24;}
</style>
<path class="st0" d="M167.4,75c-4.1,0-8.1,1-11.5,2.7c0.1-0.9,0.1-1.8,0.1-2.7c0-21.3-17.2-38.5-38.5-38.5c-8.8,0-16.9,3-23.4,8
	C84.6,31.5,69.3,23,52,23C23.3,23,0,46.3,0,75c0,28.4,22.7,51.4,51,52v0h118.6v-0.1c13.4-1.1,23.9-12.3,23.9-25.9
	C193.4,86.6,181.8,75,167.4,75z M168.6,114.9l-0.7,0.1H52.3l-1.1,0C29.6,114.6,12,96.6,12,75c0-22.1,17.9-40,40-40
	c12.8,0,24.9,6.2,32.4,16.5l7.2,10l9.8-7.5c4.7-3.6,10.2-5.5,16.1-5.5c14.6,0,26.5,11.9,26.5,26.5c0,0.5,0,1.1-0.1,1.9l-1.5,20.9
	l18.8-9.3c1.9-1,4-1.5,6.2-1.5c7.7,0,14,6.3,14,14C181.4,108.2,175.8,114.4,168.6,114.9z"/>
</svg>
