<?xml version="1.0" encoding="utf-8"?>
<!-- Generator: Adobe Illustrator 21.1.0, SVG Export Plug-In . SVG Version: 6.00 Build 0)  -->
<svg version="1.1" id="Layer_2" xmlns="http://www.w3.org/2000/svg" xmlns:xlink="http://www.w3.org/1999/xlink" x="0px" y="0px"
	 viewBox="0 0 193.4 150" style="enable-background:new 0 0 193.4 150;" xml:space="preserve">
<style type="text/css">
	.st0{fill:#F15A24;}
</style>
<path class="st0" d="M170.4,75.2c-5.2-0.6-10.2,0.4-14.5,2.5c0.1-0.9,0.1-1.8,0.1-2.7c0-21.3-17.2-38.5-38.5-38.5
	c-8.8,0-16.9,3-23.4,8C84,30.6,67.4,21.9,48.7,23.1C22.6,24.7,1.5,46,0.1,72.1C-0.5,82.5,2,92.3,6.8,100.6c0.7,1.1,2.2,1.4,3.2,0.4
	l3.7-3.7c0.6-0.6,1.3-1.2,2.1-1.6c0.9-0.5,1.1-1.7,0.7-2.6C13.6,87.7,12,81.5,12,75c0-22.1,17.9-40,40-40c12.8,0,24.9,6.2,32.4,16.5
	l6.6,9.1c0.3,0.5,1,0.5,1.4,0.2l8.6-6.6c4.1-3.2,9.1-5.2,14.3-5.7C130.9,47.3,144,59.7,144,75c0,0.5,0,1.1-0.1,1.9l-1.2,17.4
	c-0.1,1.5,1.5,2.6,2.9,1.9l15.6-7.8c1.9-1,4-1.5,6.2-1.5c6.4,0,11.9,4.2,13.5,10.4c2.3,8.7-4,16.9-12.4,17.5l-0.7,0.1H67.5
	c-0.8,0-1.6,0.3-2.1,0.9l-7.7,7.7c-1.3,1.3-0.4,3.4,1.4,3.4h110.5v-0.1c14.1-1.1,25-13.5,23.8-28.1
	C192.4,86.6,182.6,76.5,170.4,75.2z"/>
<path class="st0" d="M84.4,81c0.5,0.5,0.5,1.3,0,1.7l-41.8,41.8l-9.6,9.6c-0.5,0.5-1.3,0.5-1.7,0l-9.6-9.6l-9.6-9.6
	c-0.5-0.5-0.5-1.3,0-1.7l8.7-8.7c0.5-0.5,1.3-0.5,1.7,0l8.7,8.7c0.5,0.5,1.3,0.5,1.7,0l40.9-40.9c0.5-0.5,1.3-0.5,1.7,0L84.4,81z"/>
</svg>
