<svg id="dailer" xmlns="http://www.w3.org/2000/svg" viewBox="0 0 140.15 140.68"><defs><style>.cls-1{fill:#069069;}</style></defs><title>dailer</title><path class="cls-1" d="M139.86,170.52a30,30,0,0,1-4-.26A109.66,109.66,0,0,1,30.34,64a28.64,28.64,0,0,1-.24-3.74,30.2,30.2,0,0,1,.33-4.47A30.53,30.53,0,0,1,60.49,29.84a29.71,29.71,0,0,1,5.92.59,30.22,30.22,0,0,1,6.27,2l1.87.82,10,45.65L83.19,80.4a30.65,30.65,0,0,1-12.28,8.37A74.77,74.77,0,0,0,111.58,129a30.28,30.28,0,0,1,8.09-11.55l1.51-1.35,45.54,9.72.83,1.85a30.38,30.38,0,0,1-27.7,42.87ZM60.49,37.84a22.49,22.49,0,0,0-22.15,19.1,22.27,22.27,0,0,0-.24,3.29,20.47,20.47,0,0,0,.19,2.85l0,.45a101.64,101.64,0,0,0,98,98.73l.42,0a22.39,22.39,0,0,0,25.47-22.18,22.13,22.13,0,0,0-.64-5.31h0a21.07,21.07,0,0,0-.61-2l-37.42-8A22.13,22.13,0,0,0,118,135.09l-1,4.32-4.2-1.43a82.7,82.7,0,0,1-51-50.55l-1.53-4.36,4.54-.89a22.41,22.41,0,0,0,11-5.69L67.62,39a21.08,21.08,0,0,0-2.78-.75A21.81,21.81,0,0,0,60.49,37.84Z" transform="translate(-30.1 -29.84)"/></svg>