<svg id="Layer_2" data-name="Layer 2" xmlns="http://www.w3.org/2000/svg" viewBox="0 0 200 150">
  <defs>
    <style>
      .cls-1 {
        fill: #009245;
      }
    </style>
  </defs>
  <title>dashboard</title>
  <g>
    <circle class="cls-1" cx="100" cy="120" r="7"/>
    <path class="cls-1" d="M98.77.19C45.37.92,1.59,44.15.21,97.54a99.73,99.73,0,0,0,11.87,50,5,5,0,0,0,4.42,2.65H183.86a5,5,0,0,0,4.42-2.66A100,100,0,0,0,98.77.19Zm46,49.79L161,33.71a4,4,0,0,1,5.66,5.66L150.38,55.63A4,4,0,0,1,144.73,50ZM96.18,10.18a4,4,0,0,1,4-4,4,4,0,0,1,4,4v23a4,4,0,1,1-8,0Zm-63,94h-23a4,4,0,0,1-4-4,4,4,0,0,1,4-4h23a4,4,0,1,1,0,8ZM55.63,55.63a4,4,0,0,1-5.65,0L33.71,39.37a4,4,0,0,1,5.66-5.66L55.63,50A4,4,0,0,1,55.63,55.63Zm52.43,74.89A13,13,0,1,1,92.3,109.84c5.71-4.35,61.57-39.64,65.93-33.93S113.77,126.16,108.06,130.52Zm82.12-26.34h-23a4,4,0,0,1,0-8h23a4,4,0,0,1,4,4,4,4,0,0,1-4,4Z" transform="translate(-0.17 -0.18)"/>
    <circle class="cls-1" cx="100" cy="120" r="7"/>
    <circle class="cls-1" cx="100" cy="120" r="7"/>
  </g>
</svg>
