<?xml version="1.0" encoding="utf-8"?>
<!-- Generator: Adobe Illustrator 22.1.0, SVG Export Plug-In . SVG Version: 6.00 Build 0)  -->
<svg version="1.1" id="Capa_1" xmlns="http://www.w3.org/2000/svg" xmlns:xlink="http://www.w3.org/1999/xlink" x="0px" y="0px"
	 viewBox="0 0 60 60" style="enable-background:new 0 0 60 60;" xml:space="preserve">
<g>
	<path d="M20.4,28.2c-1.1,0-2-0.9-2-2c0-1.1,0.9-2,2-2h24.1c1.1,0,2,0.9,2,2c0,1.1-0.9,2-2,2H20.4z"/>
	<path d="M43.8,25.4H20.8c-0.5,0-0.9,0.4-0.9,0.9s0.4,0.9,0.9,0.9h22.9c0.5,0,0.9-0.4,0.9-0.9S44.3,25.4,43.8,25.4z"/>
	<path d="M20.4,20.4c-1.1,0-2-0.9-2-2s0.9-2,2-2H30c1.1,0,2,0.9,2,2s-0.9,2-2,2H20.4z"/>
	<path d="M20.8,19.9H30c0.5,0,0.9-0.4,0.9-0.9s-0.4-0.9-0.9-0.9h-9.2c-0.5,0-0.9,0.4-0.9,0.9S20.3,19.9,20.8,19.9z"/>
	<path d="M20.4,35.9c-1.1,0-2-0.9-2-2c0-1.1,0.9-2,2-2h24.1c1.1,0,2,0.9,2,2c0,1.1-0.9,2-2,2H20.4z"/>
	<path d="M43.8,32.8H20.8c-0.5,0-0.9,0.4-0.9,0.9c0,0.5,0.4,0.9,0.9,0.9h22.9c0.5,0,0.9-0.4,0.9-0.9C44.7,33.2,44.3,32.8,43.8,32.8z
		"/>
	<path d="M20.4,43.6c-1.1,0-2-0.9-2-2c0-1.1,0.9-2,2-2h24.1c1.1,0,2,0.9,2,2c0,1.1-0.9,2-2,2H20.4z"/>
	<path d="M43.8,40.1H20.8c-0.5,0-0.9,0.4-0.9,0.9s0.4,0.9,0.9,0.9h22.9c0.5,0,0.9-0.4,0.9-0.9S44.3,40.1,43.8,40.1z"/>
	<path d="M20.4,51.3c-1.1,0-2-0.9-2-2c0-1.1,0.9-2,2-2h24.1c1.1,0,2,0.9,2,2c0,1.1-0.9,2-2,2H20.4z"/>
	<path d="M43.8,47.4H20.8c-0.5,0-0.9,0.4-0.9,0.9c0,0.5,0.4,0.9,0.9,0.9h22.9c0.5,0,0.9-0.4,0.9-0.9C44.7,47.8,44.3,47.4,43.8,47.4z
		"/>
	<path d="M10.6,60v-4.8H5.8V0h43.6v14.7l4.8,4.8V60H10.6z M50.2,56V22.4H36.7V8.9h-22V56H50.2z M10.6,51.1V4.8h28.9l5.8,5.8V4H9.8
		v47.1H10.6z M47.3,18.3l-6.6-6.6v6.6H47.3z"/>
	<path d="M47.4,15.9V2.5H8v50.4h4.6v4.6H52v-37L47.4,15.9z M39.2,10.2l8.3,8.3l1.5,1.5h-9.7V10.2z M9.8,51.1V4.3h35.8V14l-7-7h-26
		v44H9.8z M14.4,55.7v-2.8v-44h22.9v12.8h12.8v33.9H14.4z"/>
</g>
</svg>
