<?xml version="1.0" encoding="utf-8"?>
<!-- Generator: Adobe Illustrator 22.1.0, SVG Export Plug-In . SVG Version: 6.00 Build 0)  -->
<svg version="1.1" id="Capa_1" xmlns="http://www.w3.org/2000/svg" xmlns:xlink="http://www.w3.org/1999/xlink" x="0px" y="0px"
	 viewBox="0 0 60 60" style="enable-background:new 0 0 60 60;" xml:space="preserve">
<g>
	<path d="M15.9,23.2c0,1.1,0.9,2,2,2h24.1c1.1,0,2-0.9,2-2s-0.9-2-2-2H17.9C16.8,21.2,15.9,22.1,15.9,23.2z"/>
	<path d="M17.9,17.5h9.6c1.1,0,2-0.9,2-2c0-1.1-0.9-2-2-2h-9.6c-1.1,0-2,0.9-2,2C15.9,16.6,16.8,17.5,17.9,17.5z"/>
	<path d="M42.1,28.9H17.9c-1.1,0-2,0.9-2,2c0,1.1,0.9,2,2,2h24.1c1.1,0,2-0.9,2-2C44.1,29.9,43.2,28.9,42.1,28.9z"/>
	<path d="M42.1,36.7H17.9c-1.1,0-2,0.9-2,2s0.9,2,2,2h24.1c1.1,0,2-0.9,2-2S43.2,36.7,42.1,36.7z"/>
	<path d="M42.1,44.4H17.9c-1.1,0-2,0.9-2,2s0.9,2,2,2h24.1c1.1,0,2-0.9,2-2S43.2,44.4,42.1,44.4z"/>
	<path d="M39,0H6.3v60h47.5V14.7L39,0z M40.2,13.5V6.9l6.6,6.6H40.2z M49.7,17.5V56H10.3V4h25.9v13.5H49.7z"/>
</g>
</svg>
