<?xml version="1.0" encoding="utf-8"?>
<!-- Generator: Adobe Illustrator 22.1.0, SVG Export Plug-In . SVG Version: 6.00 Build 0)  -->
<svg version="1.1" id="Capa_1" xmlns="http://www.w3.org/2000/svg" xmlns:xlink="http://www.w3.org/1999/xlink" x="0px" y="0px"
	 viewBox="0 0 60 60" style="enable-background:new 0 0 60 60;" xml:space="preserve">
<g>
	<path d="M11.1,23.2c0,1.1,0.9,2,2,2h24.1c1.1,0,2-0.9,2-2c0-1.1-0.9-2-2-2H13.1C12,21.2,11.1,22.1,11.1,23.2z"/>
	<path d="M13.1,17.5h9.7c1.1,0,2-0.9,2-2s-0.9-2-2-2h-9.7c-1.1,0-2,0.9-2,2S12,17.5,13.1,17.5z"/>
	<path d="M37.2,29H13.1c-1.1,0-2,0.9-2,2c0,1.1,0.9,2,2,2h24.1c1.1,0,2-0.9,2-2C39.2,29.9,38.3,29,37.2,29z"/>
	<path d="M29.5,36.7H13.1c-1.1,0-2,0.9-2,2c0,1.1,0.9,2,2,2h16.4c1.1,0,2-0.9,2-2C31.5,37.6,30.6,36.7,29.5,36.7z"/>
	<path d="M26.6,44.4H13.1c-1.1,0-2,0.9-2,2c0,1.1,0.9,2,2,2h13.5c1.1,0,2-0.9,2-2C28.6,45.3,27.7,44.4,26.6,44.4z"/>
	<path d="M48.9,33.4V14.7L34.2,0H1.4v60H45c7.5,0,13.6-6.1,13.6-13.6C58.6,40.4,54.6,35.1,48.9,33.4z M45,56c-5.3,0-9.6-4.3-9.6-9.6
		c0-5.3,4.3-9.6,9.6-9.6c0.3,0,0.5,0,0.8,0c0.3,0,0.5,0.1,0.8,0.1L47,37c4.4,0.9,7.6,4.9,7.6,9.4C54.6,51.7,50.3,56,45,56z
		 M44.9,17.5v15.3c-7.5,0-13.5,6.1-13.5,13.6c0,0.4,0,0.8,0.1,1.2l0,0.3c0,0.4,0.1,0.8,0.2,1.2l0,0.1c0.1,0.4,0.2,0.7,0.3,1.1
		l0.1,0.2c0.1,0.4,0.2,0.7,0.4,1.1l0.1,0.2c0.1,0.3,0.3,0.6,0.5,1l0.1,0.1c0.2,0.3,0.4,0.7,0.6,1l0.1,0.2c0.2,0.3,0.4,0.5,0.6,0.9
		l0.1,0.1c0.2,0.3,0.5,0.6,0.8,0.8l0.1,0.1H5.4V4h25.9v13.5H44.9z M42.1,13.5h-6.7V6.8L42.1,13.5z"/>
	<path d="M47.8,46.4l2.7-2.7c0.8-0.8,0.8-2,0-2.8c-0.4-0.4-0.9-0.6-1.4-0.6s-1,0.2-1.4,0.6L45,43.6l-2.7-2.7
		c-0.4-0.4-0.9-0.6-1.4-0.6s-1,0.2-1.4,0.6c-0.4,0.4-0.6,0.9-0.6,1.4c0,0.5,0.2,1,0.6,1.4l2.7,2.7l-2.7,2.7
		c-0.4,0.4-0.6,0.9-0.6,1.4c0,0.5,0.2,1,0.6,1.4c0.4,0.4,0.9,0.6,1.4,0.6c0.5,0,1-0.2,1.4-0.6l2.7-2.7l2.7,2.7
		c0.4,0.4,0.9,0.6,1.4,0.6s1-0.2,1.4-0.6c0.8-0.8,0.8-2,0-2.8L47.8,46.4z"/>
</g>
</svg>
