<?xml version="1.0" encoding="utf-8"?>
<!-- Generator: Adobe Illustrator 22.1.0, SVG Export Plug-In . SVG Version: 6.00 Build 0)  -->
<svg version="1.1" id="Capa_1" xmlns="http://www.w3.org/2000/svg" xmlns:xlink="http://www.w3.org/1999/xlink" x="0px" y="0px"
	 viewBox="0 0 60 60" style="enable-background:new 0 0 60 60;" xml:space="preserve">
<g>
	<path d="M18.4,26.2c0,1.1,0.9,2,2,2h24.1c1.1,0,2-0.9,2-2c0-1.1-0.9-2-2-2H20.4C19.3,24.2,18.4,25.1,18.4,26.2z"/>
	<path d="M20.4,20.4H30c1.1,0,2-0.9,2-2c0-1.1-0.9-2-2-2h-9.6c-1.1,0-2,0.9-2,2C18.4,19.5,19.3,20.4,20.4,20.4z"/>
	<path d="M44.5,31.9H20.4c-1.1,0-2,0.9-2,2c0,1.1,0.9,2,2,2h24.1c1.1,0,2-0.9,2-2C46.5,32.8,45.6,31.9,44.5,31.9z"/>
	<path d="M44.5,39.6H20.4c-1.1,0-2,0.9-2,2c0,1.1,0.9,2,2,2h24.1c1.1,0,2-0.9,2-2C46.5,40.5,45.6,39.6,44.5,39.6z"/>
	<path d="M44.5,47.3H20.4c-1.1,0-2,0.9-2,2c0,1.1,0.9,2,2,2h24.1c1.1,0,2-0.9,2-2C46.5,48.2,45.6,47.3,44.5,47.3z"/>
	<path d="M49.4,14.7V0H5.8v55.2h4.8V60h43.6V19.5L49.4,14.7z M9.8,51V4.3h35.5v6.3l-5.8-5.8H10.6V51H9.8z M50.1,55.6H14.7V8.9h22
		v13.5h13.4V55.6z M40.7,18.3v-6.6l6.6,6.6H40.7z"/>
</g>
</svg>
