<?xml version="1.0" encoding="utf-8"?>
<!-- Generator: Adobe Illustrator 22.1.0, SVG Export Plug-In . SVG Version: 6.00 Build 0)  -->
<svg version="1.1" id="Capa_1" xmlns="http://www.w3.org/2000/svg" xmlns:xlink="http://www.w3.org/1999/xlink" x="0px" y="0px"
	 viewBox="0 0 60 60" style="enable-background:new 0 0 60 60;" xml:space="preserve">
<path d="M56.3,20.8H54v-4.9c0-2-1.6-3.7-3.7-3.7H27.2l-4.8-6.7H3.9c-2,0-3.7,1.6-3.7,3.7V51l0,1.1h0.2c0.1,0.4,0.3,0.8,0.6,1.1
	c0.7,0.9,1.7,1.4,2.8,1.4h42.9c1.6,0,3-1.1,3.3-2.4l9.9-27v-0.4C59.8,22.5,58.3,20.8,56.3,20.8z M50,20.8H13.5c-0.2,0-0.4,0-0.6,0
	c-1.4,0.2-2.4,1.2-2.8,2.4l-5.9,16V9.5h16.1l4.8,6.7H50V20.8z M13.8,24.8h41.8l-9.4,25.7H4.5L13.8,24.8z"/>
</svg>
