<?xml version="1.0" encoding="utf-8"?>
<!-- Generator: Adobe Illustrator 22.1.0, SVG Export Plug-In . SVG Version: 6.00 Build 0)  -->
<svg version="1.1" id="Capa_1" xmlns="http://www.w3.org/2000/svg" xmlns:xlink="http://www.w3.org/1999/xlink" x="0px" y="0px"
	 viewBox="0 0 251 251" style="enable-background:new 0 0 251 251;" xml:space="preserve">
<g>
	<g>
		<path d="M201.3,135c-1,0-2,0.1-3,0.4l-5.7,1.6l-7.3-17.7c-3.4-8.2-13.3-14.8-22.1-14.8H87.6c-8.8,0-18.7,6.6-22.1,14.8L58.2,137
			l-5.6-1.5c-1-0.3-2-0.4-3-0.4c-5.4,0-9.3,4.1-9.3,9.8v0.2c0,5.8,4.2,10.7,9.8,11.8c-3,7.6-5.5,20.1-5.5,28.2v36.9
			c0,6.6,5.4,12,12,12h6.9c6.6,0,12-5.4,12-12v-7.7h99.8v7.7c0,6.6,5.4,12,12,12h6.9c6.6,0,12-5.4,12-12V185c0-8-2.4-20.5-5.5-28.1
			c5.6-1,9.9-5.9,9.9-11.8v-0.2C210.6,139.2,206.7,135,201.3,135z M65.9,149.3l11.6-28.2c2-4.9,8-8.9,13.2-8.9h69.4
			c5.3,0,11.2,4,13.2,8.9l11.6,28.2c2,4.9-0.7,8.9-6,8.9H71.9C66.6,158.2,63.9,154.2,65.9,149.3z M94.9,191.6c0,2.6-2.2,4.8-4.8,4.8
			h-23c-2.6,0-4.8-2.2-4.8-4.8v-9.8c0-2.6,2.2-4.8,4.8-4.8h23.1c2.6,0,4.8,2.2,4.8,4.8L94.9,191.6L94.9,191.6z M188.3,191.6
			c0,2.6-2.2,4.8-4.8,4.8h-23.1c-2.6,0-4.8-2.2-4.8-4.8v-9.8c0-2.6,2.2-4.8,4.8-4.8h23.1c2.6,0,4.8,2.2,4.8,4.8V191.6z"/>
	</g>
	<g>
		<path d="M228.5,13.3h-206C10.1,13.3,0,23.4,0,35.8v189.5c0,6.9,5.6,12.5,12.5,12.5S25,232.1,25,225.2V92.8h201v132.4
			c0,6.9,5.6,12.5,12.5,12.5s12.5-5.6,12.5-12.5V35.8C251,23.4,240.9,13.3,228.5,13.3z M25,64.1h201v4.4H25V64.1z M25,54.1v-3.5h201
			v3.5H25z M25,82.8v-4.4h201v4.4C226,82.8,25,82.8,25,82.8z"/>
	</g>
</g>
<g>
	<path d="M72,194c-4.3,0-7.8-3.5-7.8-7.8c0-4.3,3.5-7.8,7.8-7.8c4.3,0,7.8,3.5,7.8,7.8C79.8,190.5,76.3,194,72,194z M72,182.4
		c-2.1,0-3.8,1.7-3.8,3.8c0,2.1,1.7,3.8,3.8,3.8s3.8-1.7,3.8-3.8C75.8,184.1,74.1,182.4,72,182.4z"/>
</g>
<g>
	<path d="M177.8,194c-4.3,0-7.8-3.5-7.8-7.8c0-4.3,3.5-7.8,7.8-7.8s7.8,3.5,7.8,7.8C185.6,190.5,182.1,194,177.8,194z M177.8,182.4
		c-2.1,0-3.8,1.7-3.8,3.8c0,2.1,1.7,3.8,3.8,3.8s3.8-1.7,3.8-3.8C181.6,184.1,179.9,182.4,177.8,182.4z"/>
</g>
</svg>
