<svg id="lock" xmlns="http://www.w3.org/2000/svg" viewBox="0 0 152 181.71">
  <defs>
    <style>
      .cls-1 {
        fill: #009245;
      }
    </style>
  </defs>
  <title>gift</title>
  <g>
    <path class="cls-1" d="M173.18,55.18H122.39c7.54-4.9,14.43-12.13,17-16.14A20,20,0,0,0,105.55,17.8a55.74,55.74,0,0,0-5.37,13.38A55.74,55.74,0,0,0,94.82,17.8,20,20,0,0,0,61,39c2.52,4,9.41,11.24,17,16.14H27.18a3,3,0,0,0-3,3v36h152v-36A3,3,0,0,0,173.18,55.18Zm-66.61-15.8c1.19-7.22,3.85-14.32,5.74-17.33a12,12,0,0,1,20.27,12.74c-1.89,3-7.14,8.48-13.13,12.68-6.65,4.67-10.75,5.31-11.88,4.6S105.25,47.39,106.57,39.38ZM67.79,34.79A12,12,0,0,1,88.06,22c1.89,3,4.55,10.1,5.74,17.33,1.32,8,.12,12-1,12.69s-5.23.07-11.88-4.6C74.93,43.27,69.68,37.8,67.79,34.79Z" transform="translate(-24.18 -8.47)"/>
    <path class="cls-1" d="M30.18,187.18a3,3,0,0,0,3,3h134a3,3,0,0,0,3-3v-85h-140Z" transform="translate(-24.18 -8.47)"/>
  </g>
</svg>
