<svg id="Layer_4" data-name="Layer 4" xmlns="http://www.w3.org/2000/svg" viewBox="0 0 174.83 153.66">
  <title>home-solid</title>
  <path d="M187,111.35,181.35,117a2,2,0,0,1-2.82,0l-8.94-8.94a2,2,0,0,0-3.41,1.42v64.69a2,2,0,0,1-2,2h-47v-73a2,2,0,0,0-2-2h-31a2,2,0,0,0-2,2v73h-46a2,2,0,0,1-2-2V109.49a2,2,0,0,0-3.41-1.42L21.83,117A2,2,0,0,1,19,117l-5.66-5.66a2,2,0,0,1,0-2.82L43.59,78.29a2,2,0,0,0,.59-1.42V38.18a2,2,0,0,1,2-2h19a2,2,0,0,1,2,2V49.86a2,2,0,0,0,3.41,1.42L98.77,23.1a2,2,0,0,1,2.82,0l35.08,35.08,12,12,5.52,5.52L187,108.53A2,2,0,0,1,187,111.35Z" transform="translate(-12.76 -22.51)"/>
</svg>
