<svg id="Layer_4" data-name="Layer 4" xmlns="http://www.w3.org/2000/svg" viewBox="0 0 174.82 153.66">
  <title>home-v2</title>
  <path d="M187,108.52,166.18,87.7l-12-12-5.52-5.52-12-12L101.59,23.1a2,2,0,0,0-2.83,0L70.59,51.27a2,2,0,0,1-3.41-1.41V38.18a2,2,0,0,0-2-2h-19a2,2,0,0,0-2,2V76.87a2,2,0,0,1-.59,1.41L34.18,87.7,13.35,108.52a2,2,0,0,0,0,2.83L19,117a2,2,0,0,0,2.83,0l8.93-8.93a2,2,0,0,1,3.41,1.41v64.69a2,2,0,0,0,2,2h50a2,2,0,0,0,2-2v-66a2,2,0,0,1,2-2h20a2,2,0,0,1,2,2v66a2,2,0,0,0,2,2h50a2,2,0,0,0,2-2V109.49a2,2,0,0,1,3.41-1.41l8.93,8.93a2,2,0,0,0,2.83,0l5.65-5.65A2,2,0,0,0,187,108.52Zm-32.83,53.65a2,2,0,0,1-2,2h-26a2,2,0,0,1-2-2v-66a2,2,0,0,0-2-2h-44a2,2,0,0,0-2,2v66a2,2,0,0,1-2,2h-26a2,2,0,0,1-2-2V93.49a2,2,0,0,1,.59-1.41L57.18,81.66,68.67,70.18l30.1-30.1a2,2,0,0,1,2.83,0l30.1,30.1,21.9,21.89a2,2,0,0,1,.59,1.41Z" transform="translate(-12.77 -22.52)"/>
</svg>
