<svg id="Layer_2" data-name="Layer 2" xmlns="http://www.w3.org/2000/svg" viewBox="0 0 184.33 182.31">
  <defs>
    <style>
      .cls-1 {
        fill: #29abe2;
      }
    </style>
  </defs>
  <title>key</title>
  <path class="cls-1" d="M198.56,177.56,109.44,88.44A50,50,0,1,0,79.69,113l3.58,3.58a1.69,1.69,0,0,0,2,.1c3.07-1.49,6.45-3.47,8.56-1.36l10.42,10.42c1.06,1.06-1,4.41-2.45,7.53a1.68,1.68,0,0,0,.12,1.92l13.86,13.86a1.91,1.91,0,0,0,2.41-.18c2.14-1.52,4.44-2.93,6.61-.76l11,11c1.87,1.87.13,3.86-1.39,6a1.89,1.89,0,0,0-.16,2.39L147,180.37a1.75,1.75,0,0,0,2,.07c1.58-.76,3.39-1,5.8,1.39,4.3,4.3.07,4.47.9,7.23l7.47,7.47c1,1,2.75,1.23,4.57.53l26.29-9.93C198.44,185.5,201,180,198.56,177.56ZM44.18,54.18a10,10,0,1,1,10-10A10,10,0,0,1,44.18,54.18Z" transform="translate(-15.18 -15.18)"/>
</svg>
