<?xml version="1.0" encoding="utf-8"?>
<!-- Generator: Adobe Illustrator 22.1.0, SVG Export Plug-In . SVG Version: 6.00 Build 0)  -->
<svg version="1.1" id="Layer_2_1_" xmlns="http://www.w3.org/2000/svg" xmlns:xlink="http://www.w3.org/1999/xlink" x="0px" y="0px"
	 viewBox="0 0 140 140" style="enable-background:new 0 0 140 140;" xml:space="preserve">
<g>
	<g>
		<path d="M10,114.6v13.7c0,0.9,0.8,1.7,1.7,1.7h13.7c0.9,0,1.7-0.8,1.7-1.7v-13.7c0-0.9-0.8-1.7-1.7-1.7H11.7
			C10.8,112.9,10,113.6,10,114.6z"/>
		<path d="M128.3,112.9H37.4c-0.9,0-1.7,0.8-1.7,1.7v13.7c0,0.9,0.8,1.7,1.7,1.7h90.9c0.9,0,1.7-0.8,1.7-1.7v-13.7
			C130,113.6,129.2,112.9,128.3,112.9z"/>
	</g>
	<g>
		<path d="M128.3,87.1H37.4c-0.9,0-1.7,0.8-1.7,1.7v13.7c0,0.9,0.8,1.7,1.7,1.7h90.9c0.9,0,1.7-0.8,1.7-1.7V88.9
			C130,87.9,129.2,87.1,128.3,87.1z"/>
		<path d="M10,88.9v13.7c0,0.9,0.8,1.7,1.7,1.7h13.7c0.9,0,1.7-0.8,1.7-1.7V88.9c0-0.9-0.8-1.7-1.7-1.7H11.7
			C10.8,87.1,10,87.9,10,88.9z"/>
	</g>
	<g>
		<path d="M128.3,61.4H37.4c-0.9,0-1.7,0.8-1.7,1.7v13.7c0,0.9,0.8,1.7,1.7,1.7h90.9c0.9,0,1.7-0.8,1.7-1.7V63.1
			C130,62.2,129.2,61.4,128.3,61.4z"/>
		<path d="M10,63.1v13.7c0,0.9,0.8,1.7,1.7,1.7h13.7c0.9,0,1.7-0.8,1.7-1.7V63.1c0-0.9-0.8-1.7-1.7-1.7H11.7
			C10.8,61.4,10,62.2,10,63.1z"/>
	</g>
	<g>
		<path d="M10,37.4v13.7c0,0.9,0.8,1.7,1.7,1.7h13.7c0.9,0,1.7-0.8,1.7-1.7V37.4c0-0.9-0.8-1.7-1.7-1.7H11.7
			C10.8,35.7,10,36.5,10,37.4z"/>
		<path d="M128.3,35.7H37.4c-0.9,0-1.7,0.8-1.7,1.7v13.7c0,0.9,0.8,1.7,1.7,1.7h90.9c0.9,0,1.7-0.8,1.7-1.7V37.4
			C130,36.5,129.2,35.7,128.3,35.7z"/>
	</g>
	<g>
		<path d="M10,11.7v13.7c0,0.9,0.8,1.7,1.7,1.7h13.7c0.9,0,1.7-0.8,1.7-1.7V11.7c0-0.9-0.8-1.7-1.7-1.7H11.7
			C10.8,10,10,10.8,10,11.7z"/>
		<path d="M128.3,10H37.4c-0.9,0-1.7,0.8-1.7,1.7v13.7c0,0.9,0.8,1.7,1.7,1.7h90.9c0.9,0,1.7-0.8,1.7-1.7V11.7
			C130,10.8,129.2,10,128.3,10z"/>
	</g>
</g>
</svg>
