<?xml version="1.0" encoding="utf-8"?>
<!-- Generator: Adobe Illustrator 21.1.0, SVG Export Plug-In . SVG Version: 6.00 Build 0)  -->
<svg version="1.1" id="Layer_2" xmlns="http://www.w3.org/2000/svg" xmlns:xlink="http://www.w3.org/1999/xlink" x="0px" y="0px"
	 viewBox="0 0 140 140" style="enable-background:new 0 0 140 140;" xml:space="preserve">
<g>
	<g>
		<path d="M0,122v16c0,1.1,0.9,2,2,2h16c1.1,0,2-0.9,2-2v-16c0-1.1-0.9-2-2-2H2C0.9,120,0,120.9,0,122z"/>
		<path d="M138,120H32c-1.1,0-2,0.9-2,2v16c0,1.1,0.9,2,2,2h106c1.1,0,2-0.9,2-2v-16C140,120.9,139.1,120,138,120z"/>
	</g>
	<g>
		<path d="M138,90H32c-1.1,0-2,0.9-2,2v16c0,1.1,0.9,2,2,2h106c1.1,0,2-0.9,2-2V92C140,90.9,139.1,90,138,90z"/>
		<path d="M0,92v16c0,1.1,0.9,2,2,2h16c1.1,0,2-0.9,2-2V92c0-1.1-0.9-2-2-2H2C0.9,90,0,90.9,0,92z"/>
	</g>
	<g>
		<path d="M138,60H32c-1.1,0-2,0.9-2,2v16c0,1.1,0.9,2,2,2h106c1.1,0,2-0.9,2-2V62C140,60.9,139.1,60,138,60z"/>
		<path d="M0,62v16c0,1.1,0.9,2,2,2h16c1.1,0,2-0.9,2-2V62c0-1.1-0.9-2-2-2H2C0.9,60,0,60.9,0,62z"/>
	</g>
	<g>
		<path d="M0,32v16c0,1.1,0.9,2,2,2h16c1.1,0,2-0.9,2-2V32c0-1.1-0.9-2-2-2H2C0.9,30,0,30.9,0,32z"/>
		<path d="M138,30H32c-1.1,0-2,0.9-2,2v16c0,1.1,0.9,2,2,2h106c1.1,0,2-0.9,2-2V32C140,30.9,139.1,30,138,30z"/>
	</g>
	<g>
		<path d="M0,2v16c0,1.1,0.9,2,2,2h16c1.1,0,2-0.9,2-2V2c0-1.1-0.9-2-2-2H2C0.9,0,0,0.9,0,2z"/>
		<path d="M138,0H32c-1.1,0-2,0.9-2,2v16c0,1.1,0.9,2,2,2h106c1.1,0,2-0.9,2-2V2C140,0.9,139.1,0,138,0z"/>
	</g>
</g>
</svg>
