<svg id="lock-open" xmlns="http://www.w3.org/2000/svg" viewBox="0 0 70 105">
  <defs>
    <style>
      .cls-1 {
        fill: #009245;
      }
    </style>
  </defs>
  <title>lock-open</title>
  <path class="cls-1" d="M132.18,100.18h-52V75.67c0-10.83,8.41-20.07,19.23-20.48a20,20,0,0,1,20.77,20v9a5,5,0,0,0,10,0v-9a30,30,0,0,0-30.91-30C83,45.67,70.18,59.49,70.18,75.82v24.36h-2a3,3,0,0,0-3,3v44a3,3,0,0,0,3,3h64a3,3,0,0,0,3-3v-44A3,3,0,0,0,132.18,100.18Z" transform="translate(-65.18 -45.18)"/>
</svg>
