<svg id="Layer_2" data-name="Layer 2" xmlns="http://www.w3.org/2000/svg" viewBox="0 0 161 161">
  <defs>
    <style>
      .cls-1 {
        fill: #00a99d;
      }
    </style>
  </defs>
  <title>login</title>
  <g>
    <path class="cls-1" d="M165.68,19.68h-131a15,15,0,0,0-15,15v12.5a2,2,0,0,0,2,2h16a2,2,0,0,0,2-2v-7.5h121v121h-121v-8.5a2,2,0,0,0-2-2h-16a2,2,0,0,0-2,2v13.5a15,15,0,0,0,15,15h131a15,15,0,0,0,15-15v-131A15,15,0,0,0,165.68,19.68Z" transform="translate(-19.68 -19.68)"/>
    <path class="cls-1" d="M75.05,146.44l75.63-43.67a3,3,0,0,0,0-5.2L75.05,53.91a3,3,0,0,0-4.5,2.6V90.18H24.18a3,3,0,0,0-3,3v14a3,3,0,0,0,3,3H70.55v33.67A3,3,0,0,0,75.05,146.44Z" transform="translate(-19.68 -19.68)"/>
  </g>
</svg>
