<svg id="Layer_2" data-name="Layer 2" xmlns="http://www.w3.org/2000/svg" viewBox="0 0 161.5 161">
  <defs>
    <style>
      .cls-1 {
        fill: #00a99d;
      }
    </style>
  </defs>
  <title>logout</title>
  <g>
    <path class="cls-1" d="M165.68,19.68h-131a15,15,0,0,0-15,15v12.5a2,2,0,0,0,2,2h16a2,2,0,0,0,2-2v-7.5h121v121h-121v-8.5a2,2,0,0,0-2-2h-16a2,2,0,0,0-2,2v13.5a15,15,0,0,0,15,15h131a15,15,0,0,0,15-15v-131A15,15,0,0,0,165.68,19.68Z" transform="translate(-19.18 -19.68)"/>
    <path class="cls-1" d="M96.3,53.91,20.68,97.58a3,3,0,0,0,0,5.2L96.3,146.44a3,3,0,0,0,4.5-2.6V110.18h46.37a3,3,0,0,0,3-3v-14a3,3,0,0,0-3-3H100.8V56.51A3,3,0,0,0,96.3,53.91Z" transform="translate(-19.18 -19.68)"/>
  </g>
</svg>
