<svg id="bell-mute" xmlns="http://www.w3.org/2000/svg" viewBox="0 0 99 141">
  <defs>
    <style>
      .cls-1 {
        fill: #069069;
      }
    </style>
  </defs>
  <title>microphone</title>
  <g>
    <path class="cls-1" d="M100.18,125.18a25,25,0,0,0,25-25c0-.17,0-.33,0-.5v-46a25,25,0,0,0-50,0v46c0,.17,0,.33,0,.5A25,25,0,0,0,100.18,125.18Z" transform="translate(-50.18 -29.18)"/>
    <path class="cls-1" d="M144.18,160.18h-39V144.89a45.06,45.06,0,0,0,40-44.72c0-.27,0-.55,0-.79V80.18a5,5,0,0,0-10,0V99.66c0,.15,0,.33,0,.51a35,35,0,0,1-70,0c0-.19,0-.38,0-.56V80.18a5,5,0,1,0-10,0v19.2c0,.27,0,.54,0,.8a45.06,45.06,0,0,0,40,44.72v15.28h-40a5,5,0,0,0-5,5v3a2,2,0,0,0,2,2h95a2,2,0,0,0,2-2v-3A5,5,0,0,0,144.18,160.18Z" transform="translate(-50.18 -29.18)"/>
  </g>
</svg>
