<svg id="moon" xmlns="http://www.w3.org/2000/svg" viewBox="0 0 138.18 136.82"><title>moon</title><path d="M101,169.16a70.7,70.7,0,0,1-50.07-20.54A69.31,69.31,0,0,1,30.18,99,67.65,67.65,0,0,1,44.62,57a70.44,70.44,0,0,1,16.1-15A72.29,72.29,0,0,1,81,32.49a3.48,3.48,0,0,1,3.64,1.1,3.39,3.39,0,0,1,.41,3.74,54.23,54.23,0,0,0-6.53,25.8c0,32.06,26.34,58.15,58.72,58.15a55.63,55.63,0,0,0,26.06-6.46,3.48,3.48,0,0,1,3.78.41,3.42,3.42,0,0,1,1.11,3.61,71.14,71.14,0,0,1-9.62,20.1,70.31,70.31,0,0,1-15.16,15.95A69.21,69.21,0,0,1,101,169.18ZM75.57,41.69C52.26,51.57,37.09,73.76,37.09,99c0,34.89,28.67,63.28,63.9,63.28a62.81,62.81,0,0,0,57.93-38.1,61.56,61.56,0,0,1-21.66,3.9,65.52,65.52,0,0,1-46.4-19,64.25,64.25,0,0,1-19.23-46A60,60,0,0,1,75.57,41.69Z" transform="translate(-30.18 -32.35)"/></svg>