<svg id="moon" xmlns="http://www.w3.org/2000/svg" viewBox="0 0 138.18 136.82"><defs><style>.cls-1{fill:#237461;}</style></defs><title>moon-solid</title><path class="cls-1" d="M168.22,118.84a71.21,71.21,0,0,1-9.62,20.1,70.42,70.42,0,0,1-15.16,15.94A69.2,69.2,0,0,1,101,169.18h0a70.72,70.72,0,0,1-50.07-20.54A69.28,69.28,0,0,1,30.18,99,67.6,67.6,0,0,1,44.62,57a70.11,70.11,0,0,1,16.1-15A72.24,72.24,0,0,1,81,32.5a3.46,3.46,0,0,1,3.64,1.1,3.39,3.39,0,0,1,.41,3.74,54.28,54.28,0,0,0-6.52,25.8c0,32.06,26.34,58.15,58.72,58.15a55.57,55.57,0,0,0,26.06-6.47,3.48,3.48,0,0,1,3.77.41A3.43,3.43,0,0,1,168.22,118.84Z" transform="translate(-30.18 -32.35)"/></svg>