<?xml version="1.0" encoding="utf-8"?>
<!-- Generator: Adobe Illustrator 22.1.0, SVG Export Plug-In . SVG Version: 6.00 Build 0)  -->
<svg version="1.1" id="Layer_2_1_" xmlns="http://www.w3.org/2000/svg" xmlns:xlink="http://www.w3.org/1999/xlink" x="0px" y="0px"
	 viewBox="0 0 100 81" style="enable-background:new 0 0 100 81;" xml:space="preserve">
<style type="text/css">
	.st0{fill:#009245;}
</style>
<title>navicon-solid</title>
<g>
	<path class="st0" d="M88.5,8h-77c-0.9,0-1.6,0.7-1.6,1.6v9.6c0,0.9,0.7,1.6,1.6,1.6h77c0.9,0,1.6-0.7,1.6-1.6V9.6
		C90.1,8.7,89.4,8,88.5,8z"/>
	<path class="st0" d="M88.5,60.2h-77c-0.9,0-1.6,0.7-1.6,1.6v9.6c0,0.9,0.7,1.6,1.6,1.6h77c0.9,0,1.6-0.7,1.6-1.6v-9.6
		C90.1,60.9,89.4,60.2,88.5,60.2z"/>
	<path class="st0" d="M88.5,33.7h-77c-0.9,0-1.6,0.7-1.6,1.6V45c0,0.9,0.7,1.6,1.6,1.6h77c0.9,0,1.6-0.7,1.6-1.6v-9.6
		C90.1,34.4,89.4,33.7,88.5,33.7z"/>
</g>
</svg>
