<?xml version="1.0" encoding="utf-8"?>
<!-- Generator: Adobe Illustrator 21.1.0, SVG Export Plug-In . SVG Version: 6.00 Build 0)  -->
<svg version="1.1" id="Layer_2" xmlns="http://www.w3.org/2000/svg" xmlns:xlink="http://www.w3.org/1999/xlink" x="0px" y="0px"
	 viewBox="0 0 200.4 200.4" style="enable-background:new 0 0 200.4 200.4;" xml:space="preserve">
<style type="text/css">
	.st0{fill:#009245;}
</style>
<path class="st0" d="M76.2,150.2h-42c-2.2,0-4-1.8-4-4v-113c0-2.2,1.8-4,4-4h42c2.2,0,4,1.8,4,4v113
	C80.2,148.4,78.4,150.2,76.2,150.2z"/>
<path class="st0" d="M166.2,150.2h-42c-2.2,0-4-1.8-4-4v-113c0-2.2,1.8-4,4-4h42c2.2,0,4,1.8,4,4v113
	C170.2,148.4,168.4,150.2,166.2,150.2z"/>
</svg>
