<svg id="Layer_2" data-name="Layer 2" xmlns="http://www.w3.org/2000/svg" viewBox="0 0 155.42 155.42">
  <defs>
    <style>
      .cls-1 {
        fill: #22b573;
      }
    </style>
  </defs>
  <title>pencil</title>
  <path class="cls-1" d="M179,40.33a100.53,100.53,0,0,0-8.84-10.16,99.43,99.43,0,0,0-20-15.41L128.73,36.27l-7.66,7.66L30.18,134.82v35.36H65.54L185.6,50.12A96.65,96.65,0,0,0,179,40.33ZM58.18,161.18h-19L50.7,149.66a69.82,69.82,0,0,0,10.42,8.58ZM151,68.35,68.35,151a60.21,60.21,0,0,1-10.57-8.43l84.8-84.8,7.08-7.08,14.45-14.45a88.13,88.13,0,0,1,8.78,10.22Z" transform="translate(-30.18 -14.76)"/>
</svg>
