<?xml version="1.0" encoding="utf-8"?>
<!-- Generator: Adobe Illustrator 22.1.0, SVG Export Plug-In . SVG Version: 6.00 Build 0)  -->
<svg version="1.1" id="Capa_1" xmlns="http://www.w3.org/2000/svg" xmlns:xlink="http://www.w3.org/1999/xlink" x="0px" y="0px"
	 viewBox="0 0 475.1 475.1" style="enable-background:new 0 0 475.1 475.1;" xml:space="preserve">
<g>
	<path d="M292.4,389c2.9-25.7-2.8-45.8-17.2-60.1l111.6-111.6c7.6,7.6,16.9,11.3,27.9,11.3c11,0,20.3-3.8,27.9-11.3
		c7.6-7.6,11.3-16.9,11.3-27.9c0-11-3.8-20.3-11.3-27.9L303.1,22.1c-7.6-7.6-16.9-11.3-27.9-11.3c-11,0-20.3,3.8-27.9,11.3
		C239.8,29.7,236,39,236,50c0,11,3.8,20.3,11.3,27.9L135.8,189.4c-14.4-14.4-34.4-20.1-60.1-17.2c-25.7,2.9-47.5,13.3-65.4,31.2
		c-3.8,3.8-5.7,8.4-5.7,13.9c0,5.5,1.9,10.2,5.7,13.9l88,88L9.2,441.6c-3.2,4.6-2.8,8.9,1.1,12.9l0.2,0.2c1.7,1.7,3.8,2.6,6.3,2.6
		c2.5,0,4.7-0.7,6.8-2.2l116.4-94.1l93.5,93.5c3.8,3.8,8.4,5.7,13.9,5.7c5.5,0,10.2-1.9,14-5.7C279.1,436.5,289.5,414.8,292.4,389z
		 M191.5,231.3c-2,2-4.4,3-7,3c-2.6,0-4.9-1-7-3.1c-2-2-3.1-4.4-3.1-7c0-2.6,1-4.9,3.1-7l97.6-97.6c2-2,4.4-3.1,7-3.1
		c2.6,0,4.9,1,7,3.1c2,2,3.1,4.4,3.1,7c0,2.6-1,4.9-3.1,7L191.5,231.3z"/>
</g>
</svg>
