<svg id="Layer_2" data-name="Layer 2" xmlns="http://www.w3.org/2000/svg" viewBox="0 0 170 169">
  <defs>
    <style>
      .cls-1 {
        fill: #009245;
      }
    </style>
  </defs>
  <title>search-zoom</title>
  <g>
    <path class="cls-1" d="M175.35,28.15a69.76,69.76,0,0,0-50.67-22c-1.51,0-3,0-4.57.15A69.46,69.46,0,0,0,68.57,116.64L26.23,159a7,7,0,0,0,0,9.9l4.24,4.24a7,7,0,0,0,9.9,0l42.21-42.21a69.46,69.46,0,0,0,42.1,14.26h0q1.42,0,2.86-.06a69.47,69.47,0,0,0,47.81-117Zm-50.67,97a49.5,49.5,0,1,1,49.5-49.5A49.56,49.56,0,0,1,124.68,125.18Z" transform="translate(-24.18 -6.18)"/>
    <path class="cls-1" d="M156.18,66.18h-25v-25a3,3,0,0,0-3-3h-9a3,3,0,0,0-3,3v25h-25a3,3,0,0,0-3,3v9a3,3,0,0,0,3,3h25v25a3,3,0,0,0,3,3h9a3,3,0,0,0,3-3v-25h25a3,3,0,0,0,3-3v-9A3,3,0,0,0,156.18,66.18Z" transform="translate(-24.18 -6.18)"/>
  </g>
</svg>
