<svg id="Layer_3" data-name="Layer 3" xmlns="http://www.w3.org/2000/svg" viewBox="0 0 88 100.5">
  <defs>
    <style>
      .cls-1 {
        fill: #009245;
      }
    </style>
  </defs>
  <title>shield-lock-solid</title>
  <path class="cls-1" d="M135.67,49.93h-71c-4.69,0-8.51,4.2-8.51,9.37v43.28c0,11.4,11.35,24.33,18.12,31,6.31,6.25,18.87,16.83,25.88,16.83,6.62,0,19.19-10.57,25.57-16.81,6.88-6.73,18.43-19.72,18.43-31V59.3C144.18,54.13,140.36,49.93,135.67,49.93Zm-15.16,72.51a1.74,1.74,0,0,1-1.74,1.74H81.59a1.74,1.74,0,0,1-1.74-1.74V96.88a1.74,1.74,0,0,1,1.74-1.75h1.16V81a17.67,17.67,0,0,1,16.9-17.79,17.45,17.45,0,0,1,18,17.42v5.23a2.91,2.91,0,0,1-5.81,0V80.61A11.63,11.63,0,0,0,99.73,69,11.8,11.8,0,0,0,88.56,80.89V95.13h30.21a1.74,1.74,0,0,1,1.74,1.75Z" transform="translate(-56.18 -49.93)"/>
</svg>
