<svg id="Layer_2" data-name="Layer 2" xmlns="http://www.w3.org/2000/svg" viewBox="0 0 90 102.78">
  <defs>
    <style>
      .cls-1 {
        fill: #009245;
      }
    </style>
  </defs>
  <title>shield</title>
  <path class="cls-1" d="M136.47,48.79H63.89c-4.8,0-8.71,4.3-8.71,9.59v44.26c0,11.66,11.61,24.88,18.53,31.72,6.46,6.39,19.3,17.21,26.47,17.21,6.77,0,19.62-10.81,26.15-17.19,7-6.89,18.85-20.16,18.85-31.74V58.37C145.18,53.08,141.27,48.79,136.47,48.79Zm-36.29,93.42V58.13H135.8a.91.91,0,0,1,0,.24v44.26c0,5.73-5.77,14.88-15.45,24.49C111,136.41,102.54,141.7,100.18,142.21Z" transform="translate(-55.18 -48.79)"/>
</svg>
