<?xml version="1.0" encoding="utf-8"?>
<!-- Generator: Adobe Illustrator 21.1.0, SVG Export Plug-In . SVG Version: 6.00 Build 0)  -->
<svg version="1.1" id="Layer_2" xmlns="http://www.w3.org/2000/svg" xmlns:xlink="http://www.w3.org/1999/xlink" x="0px" y="0px"
	 viewBox="0 0 200.4 200.4" style="enable-background:new 0 0 200.4 200.4;" xml:space="preserve">
<style type="text/css">
	.st0{fill:#F7931E;}
</style>
<g>
	<path class="st0" d="M140.2,114c2.5-4,4-8.7,4-13.8s-1.5-9.8-4-13.8c-3-4.8-7.6-8.6-13-10.6V35.4c0-2.4-2.7-3.8-4.6-2.5L57.8,75.2
		H42.2c-6.6,0-12,5.4-12,12v26c0,6.6,5.4,12,12,12h16.4l64,41.8c2,1.3,4.6-0.1,4.6-2.5v-39.9C132.6,122.6,137.1,118.8,140.2,114z"/>
	<path class="st0" d="M141.9,39.3c-2.6-1-5.5,0.3-6.4,2.9c-1,2.6,0.3,5.5,2.9,6.4c21.4,8,35.8,28.7,35.8,51.5
		c0,22.8-14.4,43.5-35.8,51.5c-2.6,1-3.9,3.9-2.9,6.4c0.8,2,2.7,3.2,4.7,3.2c0.6,0,1.2-0.1,1.8-0.3c25.3-9.5,42.2-33.9,42.2-60.9
		C184.2,73.2,167.2,48.8,141.9,39.3z"/>
	<path class="st0" d="M137.5,130c-2.3,1.5-3.1,4.5-1.6,6.9c0.9,1.5,2.6,2.4,4.3,2.4c0.9,0,1.8-0.2,2.6-0.7
		c13.4-8.3,21.4-22.6,21.4-38.3c0-15.7-8-30-21.4-38.3c-2.3-1.5-5.4-0.7-6.9,1.6c-1.5,2.3-0.7,5.4,1.6,6.9
		c10.4,6.4,16.6,17.6,16.6,29.8S148,123.5,137.5,130z"/>
</g>
</svg>
