<?xml version="1.0" encoding="utf-8"?>
<!-- Generator: Adobe Illustrator 21.1.0, SVG Export Plug-In . SVG Version: 6.00 Build 0)  -->
<svg version="1.1" id="Layer_2" xmlns="http://www.w3.org/2000/svg" xmlns:xlink="http://www.w3.org/1999/xlink" x="0px" y="0px"
	 viewBox="0 0 200.4 200.4" style="enable-background:new 0 0 200.4 200.4;" xml:space="preserve">
<style type="text/css">
	.st0{fill:#F7931E;}
</style>
<g>
	<path class="st0" d="M138,83.4l-51.4,60.1l36,23.5c2,1.3,4.6-0.1,4.6-2.5v-39.9c5.4-2,10-5.8,13-10.6c2.5-4,4-8.7,4-13.8
		s-1.5-9.8-4-13.8C139.5,85.3,138.8,84.3,138,83.4z"/>
	<path class="st0" d="M42.2,125.2h16.4l2.6,1.7l66-77.1V35.4c0-2.4-2.7-3.8-4.6-2.5L57.8,75.2H42.2c-6.6,0-12,5.4-12,12v26
		C30.2,119.8,35.6,125.2,42.2,125.2z"/>
</g>
<path class="st0" d="M48.2,170.2c-1.2,0-2.3-0.4-3.2-1.2c-2.1-1.8-2.3-5-0.5-7l107-125c1.8-2.1,5-2.3,7-0.5c2.1,1.8,2.3,5,0.5,7
	l-107,125C51,169.6,49.6,170.2,48.2,170.2z"/>
</svg>
