<svg id="navicon" xmlns="http://www.w3.org/2000/svg" viewBox="0 0 176.36 167.92"><defs><style>.cls-1{fill:#009245;}</style></defs><title>star</title><path class="cls-1" d="M186.35,70.18H123.43a2,2,0,0,1-1.9-1.38L102.08,8.95a2,2,0,0,0-3.8,0L78.83,68.79a2,2,0,0,1-1.9,1.38H14a2,2,0,0,0-1.18,3.62l50.91,37a2,2,0,0,1,.73,2.24L45,172.86a2,2,0,0,0,3.08,2.24l50.91-37a2,2,0,0,1,2.35,0l50.91,37a2,2,0,0,0,3.08-2.24L135.89,113a2,2,0,0,1,.73-2.24l50.91-37A2,2,0,0,0,186.35,70.18ZM162.91,81.79l-35.69,25.93a2,2,0,0,0-.73,2.24l13.63,42a2,2,0,0,1-3.08,2.24l-35.69-25.93a2,2,0,0,0-2.35,0L63.31,154.16a2,2,0,0,1-3.08-2.24l13.63-42a2,2,0,0,0-.73-2.24L37.45,81.79a2,2,0,0,1,1.18-3.62H82.74a2,2,0,0,0,1.9-1.38l13.63-42a2,2,0,0,1,3.8,0l13.63,42a2,2,0,0,0,1.9,1.38h44.12A2,2,0,0,1,162.91,81.79Z" transform="translate(-12 -7.57)"/></svg>