<svg id="navicon" xmlns="http://www.w3.org/2000/svg" viewBox="0 0 176.31 167.91">
  <defs>
    <style>
      .cls-1 {
        fill: #009245;
      }
    </style>
  </defs>
  <title>star-half</title>
  <path class="cls-1" d="M175.88,63.38a2,2,0,0,0-1.53-.77H111.43a2,2,0,0,1-1.9-1.38L90.08,1.38a2,2,0,0,0-3.8,0L66.83,61.23a2,2,0,0,1-1.9,1.38H2A2,2,0,0,0,.82,66.23l50.91,37a2,2,0,0,1,.72,2.24L33,165.3a2,2,0,0,0,3.08,2.23l50.9-37a2,2,0,0,1,2.36,0l50.9,37a2,2,0,0,0,2.79-.44,2,2,0,0,0,.29-1.79L123.9,105.43a2,2,0,0,1,.72-2.24l50.91-37A2,2,0,0,0,175.88,63.38Zm-25,10.85-35.69,25.93a2,2,0,0,0-.73,2.24l13.63,42a2,2,0,0,1-3.07,2.24L89.36,120.71a2.1,2.1,0,0,0-1.18-.38V25.89a2,2,0,0,1,1.9,1.38l13.63,42a2,2,0,0,0,1.91,1.38h44.11a2,2,0,0,1,2,2A2,2,0,0,1,150.91,74.23Z" transform="translate(0.01 0)"/>
</svg>
