<?xml version="1.0" encoding="utf-8"?>
<!-- Generator: Adobe Illustrator 21.1.0, SVG Export Plug-In . SVG Version: 6.00 Build 0)  -->
<svg version="1.1" id="Layer_2" xmlns="http://www.w3.org/2000/svg" xmlns:xlink="http://www.w3.org/1999/xlink" x="0px" y="0px"
	 viewBox="0 0 154.7 154.7" style="enable-background:new 0 0 154.7 154.7;" xml:space="preserve">
<g>
	<path d="M153.9,67.3L87.4,0.9c-1.2-1.2-3.1-1.2-4.2,0L0.9,83.2c-0.7,0.7-1,1.8-0.8,2.8l12,54.5c0.3,1.1,1.1,2,2.3,2.3l54.5,12
		c1,0.2,2-0.1,2.8-0.8l82.3-82.3C155,70.4,155,68.5,153.9,67.3z M68.4,142.9c-0.7,0.7-1.8,1-2.8,0.8l-42.9-9.4
		c-1.1-0.3-2-1.1-2.3-2.3L11,89.1c-0.2-1,0.1-2,0.8-2.8L83.2,15c1.2-1.2,3.1-1.2,4.2,0l52.3,52.3c1.2,1.2,1.2,3.1,0,4.2L68.4,142.9z
		"/>
	<ellipse transform="matrix(0.7071 -0.7071 0.7071 0.7071 -77.1771 58.6802)" cx="32.2" cy="122.5" rx="5" ry="5"/>
</g>
</svg>
