<svg id="Layer_3" data-name="Layer 3" xmlns="http://www.w3.org/2000/svg" viewBox="0 0 108.74 110.21">
  <defs>
    <style>
      .cls-1 {
        fill: #009245;
      }
    </style>
  </defs>
  <title>thumbs-down</title>
  <path class="cls-1" d="M119.85,188.43a18.47,18.47,0,0,1-4.89-.67c-6.55-1.79-11.2-6.74-12.15-12.92-1.68-10.92-4.35-13.81-9.19-19.05-1.08-1.17-2.31-2.51-3.61-4a21.42,21.42,0,0,0-6.57-5.29C80.8,145,77.19,143,77.19,136.9V116c0-3.45,0-6.33-.06-8.74C77,94.7,77,91.32,85,88.11,114,76.7,134,75.16,144.24,83.53a19.53,19.53,0,0,1,7,15.36A17.16,17.16,0,0,1,155,114.21a19.69,19.69,0,0,1,1.36,13.66c3.3,5.37,3.16,12.65,1,17.85-2.32,5.61-7,9-12.43,9H132.87c5.83,15.1,3.06,23.52-.66,28.05A15.79,15.79,0,0,1,119.85,188.43ZM87.19,137.1c.3.19.76.45,1.15.67a31.22,31.22,0,0,1,9.26,7.5c1.17,1.37,2.29,2.58,3.36,3.74,5.35,5.8,9.58,10.38,11.72,24.31.41,2.66,2.81,4.22,4.91,4.8s5.09.45,6.88-1.73c1.23-1.5,4.61-7.71-3.78-24.47l-3.62-7.24h27.84c1.35,0,2.43-.94,3.19-2.79,1.35-3.27.92-7.75-.92-9.59l-2.55-2.55,1.61-3.22a9.63,9.63,0,0,0-.85-8.93l-1.5-2.25,1.07-2.49a7.09,7.09,0,0,0-2.09-8.13l-2.22-1.85.49-2.84c0-.18.78-5.55-3.32-8.81s-16-6.85-49.18,6.18c-.3.12-1,.38-1.37.58a76.19,76.19,0,0,0-.17,9.15c0,2.44.06,5.36.06,8.85V136.9C87.19,137,87.19,137,87.19,137.1Z" transform="translate(-50.18 -78.23)"/>
  <rect class="cls-1" y="11.95" width="24" height="53" rx="3" ry="3"/>
</svg>
