<svg id="Layer_3" data-name="Layer 3" xmlns="http://www.w3.org/2000/svg" viewBox="0 0 108.74 110.21">
  <defs>
    <style>
      .cls-1 {
        fill: #009245;
      }
    </style>
  </defs>
  <title>thumbs-up</title>
  <path class="cls-1" d="M126.06,155.37c-10.58,0-24.3-3.29-41.06-9.88-8.05-3.22-8-6.6-7.88-19.15,0-2.41.06-5.29.06-8.74V96.69c0-6.06,3.61-8.1,6.25-9.58A21.39,21.39,0,0,0,90,81.82c1.29-1.51,2.52-2.84,3.61-4,4.84-5.24,7.51-8.13,9.19-19.05,1-6.18,5.61-11.13,12.15-12.92s13.22.12,17.25,5c3.72,4.53,6.49,13,.66,28.05h12.06c5.46,0,10.11,3.35,12.43,9,2.15,5.2,2.3,12.48-1,17.85A19.69,19.69,0,0,1,155,119.38a17.16,17.16,0,0,1-3.78,15.32,19.53,19.53,0,0,1-7,15.36C139.89,153.6,133.82,155.37,126.06,155.37ZM87.29,135.61c.42.2,1.07.46,1.4.59,33.15,13,45,9.46,49.15,6.17s3.34-8.64,3.31-8.87l-.49-2.84,2.22-1.8a7.21,7.21,0,0,0,2.09-8.13l-1.07-2.49,1.5-2.25a9.63,9.63,0,0,0,.82-9l-1.61-3.22,2.58-2.49c1.84-1.84,2.27-6.32.92-9.59-.77-1.85-1.84-2.79-3.19-2.79H117.08l3.62-7.24c8.38-16.76,5-23,3.78-24.47-1.79-2.17-4.72-2.32-6.88-1.73s-4.5,2.14-4.91,4.8c-2.14,13.94-6.37,18.52-11.72,24.31-1.08,1.17-2.19,2.37-3.36,3.74a31.21,31.21,0,0,1-9.26,7.49c-.39.22-.85.48-1.15.67,0,.06,0,.12,0,.2v20.91c0,3.5,0,6.41-.06,8.85A76.2,76.2,0,0,0,87.29,135.61Z" transform="translate(-50.18 -45.16)"/>
  <rect class="cls-1" y="45.01" width="24" height="53" rx="3" ry="3"/>
</svg>
