<?xml version="1.0" encoding="iso-8859-1"?>
<!-- Generator: Adobe Illustrator 19.0.0, SVG Export Plug-In . SVG Version: 6.00 Build 0)  -->
<svg version="1.1" id="Layer_1" xmlns="http://www.w3.org/2000/svg" xmlns:xlink="http://www.w3.org/1999/xlink" x="0px" y="0px"
	 viewBox="0 0 512 512" style="enable-background:new 0 0 512 512;" xml:space="preserve">
<g>
	<g>
		<path d="M384,288.008c-29.453,0-53.344,23.875-53.344,53.328s23.891,53.328,53.344,53.328s53.344-23.875,53.344-53.328
			S413.453,288.008,384,288.008z M384,373.336c-17.656,0-32-14.359-32-32s14.344-32,32-32s32,14.359,32,32
			S401.656,373.336,384,373.336z"/>
	</g>
</g>
<g>
	<g>
		<path d="M474.094,250.414L450.688,64.008h7.969c5.906,0,10.688-4.781,10.688-10.672s-4.781-10.672-10.688-10.672H448H245.336
			h-21.328H224c-5.891,0-10.664,4.781-10.664,10.672S218.109,64.008,224,64.008h14.711l-46.523,149.781c0,0-1.594-0.031-4.5-0.031
			c-9.414,0-32.578,0.313-59.688,3.031v-24.594h21.336v-85.531H128V85.336h-0.109c0-17.672-14.328-32-32-32
			c-5.891,0-10.672,4.781-10.672,10.672S90,74.664,95.891,74.664c5.883,0,10.664,4.797,10.664,10.672h0.109v21.328H85.336v85.531
			h21.328v27.156C62.344,225.68,14.5,239.07,0,267.336v106c0,53.016,42.984,96,96,96c49.414,0,90.102-37.328,95.406-85.328h71.875
			c17.594,49.703,64.984,85.328,120.719,85.328c70.688,0,128-57.313,128-128C512,305.773,497.5,273.602,474.094,250.414z
			 M106.664,128.008H128v42.859h-21.336V128.008z M169.891,384.164c-1.789,12.391-6.648,24.031-14.188,34.031
			c-4.188-3.688-10.578-3.547-14.586,0.453c-3.992,4-4.148,10.359-0.477,14.563c-10,7.484-21.641,12.297-34.016,14.047
			c-0.383-5.547-4.984-9.922-10.625-9.922s-10.242,4.375-10.625,9.922c-12.375-1.75-24.016-6.563-34.016-14.047
			c3.672-4.203,3.516-10.563-0.477-14.563c-4.008-4-10.398-4.141-14.586-0.453c-7.539-10-12.398-21.641-14.188-34.031
			c5.617-0.297,10.078-4.938,10.086-10.641c0-5.703-4.492-10.359-10.133-10.625c1.727-12.438,6.539-24.141,14.063-34.188
			c4.188,3.859,10.695,3.766,14.758-0.297c4.07-4.078,4.148-10.609,0.273-14.781c10.039-7.578,21.742-12.438,34.195-14.203
			c0.195,5.719,4.883,10.297,10.648,10.297s10.453-4.578,10.648-10.297c12.453,1.766,24.156,6.625,34.195,14.203
			c-3.875,4.172-3.797,10.703,0.273,14.781c4.063,4.063,10.57,4.156,14.758,0.297c7.523,10.047,12.336,21.734,14.063,34.172
			c-5.641,0.281-10.133,4.938-10.133,10.641S164.273,383.867,169.891,384.164z M257.781,362.664h-66.375
			c-5.305-48-45.992-85.328-95.406-85.328c-30.031,0-56.828,13.797-74.438,35.375l-0.195-39.344
			c10.125-13.078,37.336-24.219,76.031-30.953c39.117-6.797,79-7.328,90.289-7.328c2.617,0,4.086,0.031,4.094,0.031l16.031,0.297
			l4.75-15.297l48.484-156.109h168.141l21.063,167.781c-7.188-4.359-14.844-8.016-22.875-10.906L410.359,85.336H276.75l-53,170.672
			h64.844C268.328,278.648,256,308.555,256,341.336C256,348.602,256.617,355.727,257.781,362.664z M405.156,215.086
			c-6.891-1.141-13.953-1.75-21.156-1.75c-26.172,0-50.5,7.859-70.766,21.328h-60.516l39.75-128h99.063L405.156,215.086z
			 M481.281,385.211c-5.031-2.609-11.281-0.828-14.141,4.125s-1.297,11.234,3.469,14.297c-3.344,4.625-7.078,9.016-11.188,13.125
			c-4.109,4.125-8.516,7.844-13.141,11.188c-3.063-4.75-9.328-6.328-14.281-3.469c-4.969,2.859-6.75,9.109-4.125,14.141
			c-10.438,4.719-21.641,7.719-33.234,8.859c-0.266-5.641-4.922-10.141-10.641-10.141s-10.375,4.5-10.641,10.141
			c-11.594-1.141-22.797-4.141-33.234-8.859c2.609-5.031,0.844-11.281-4.125-14.141c-4.953-2.859-11.234-1.281-14.281,3.469
			c-4.625-3.344-9.031-7.063-13.156-11.188c-4.094-4.109-7.828-8.5-11.172-13.125c4.766-3.063,6.328-9.344,3.469-14.297
			s-9.109-6.734-14.141-4.125C282,374.773,279,363.57,277.844,351.977C283.5,351.711,288,347.055,288,341.336
			s-4.5-10.359-10.156-10.641c1.156-11.594,4.156-22.781,8.875-33.234c5.031,2.609,11.281,0.844,14.141-4.125
			c2.859-4.953,1.297-11.234-3.469-14.297c3.328-4.625,7.078-9.016,11.172-13.125c4.125-4.109,8.516-7.844,13.141-11.188
			c3.063,4.766,9.344,6.328,14.297,3.469c4.969-2.859,6.734-9.109,4.125-14.141c10.438-4.719,21.641-7.719,33.234-8.859
			c0.266,5.641,4.922,10.141,10.641,10.141s10.375-4.5,10.641-10.141c11.594,1.141,22.797,4.141,33.234,8.859
			c-2.625,5.031-0.844,11.281,4.125,14.141c4.953,2.859,11.234,1.297,14.281-3.469c4.625,3.344,9.031,7.078,13.141,11.188
			s7.844,8.5,11.188,13.125c-4.766,3.063-6.328,9.344-3.469,14.297c2.859,4.969,9.109,6.734,14.141,4.125
			c4.719,10.453,7.719,21.641,8.875,33.234C484.5,330.977,480,335.617,480,341.336s4.5,10.375,10.156,10.641
			C489,363.57,486,374.773,481.281,385.211z"/>
	</g>
</g>
<g>
	<g>
		<path d="M96,341.336c-17.672,0-32,14.328-32,32s14.328,32,32,32s32-14.328,32-32S113.672,341.336,96,341.336z M96,384.008
			c-5.883,0-10.664-4.781-10.664-10.672c0-5.875,4.781-10.672,10.664-10.672s10.664,4.797,10.664,10.672
			C106.664,379.227,101.883,384.008,96,384.008z"/>
	</g>
</g>
<g>
</g>
<g>
</g>
<g>
</g>
<g>
</g>
<g>
</g>
<g>
</g>
<g>
</g>
<g>
</g>
<g>
</g>
<g>
</g>
<g>
</g>
<g>
</g>
<g>
</g>
<g>
</g>
<g>
</g>
</svg>
