<svg id="navicon" xmlns="http://www.w3.org/2000/svg" viewBox="0 0 194 120.85">
  <defs>
    <style>
      .cls-1 {
        fill: #01a89e;
      }
    </style>
  </defs>
  <title>users</title>
  <g>
    <path class="cls-1" d="M141,119.2a29.64,29.64,0,0,0-9.66-12.93,28.57,28.57,0,0,0-16.17-5.88,32.06,32.06,0,0,0,16.13-27.95c0-17.6-14-31.91-31.15-31.91S69,54.84,69,72.44a32.06,32.06,0,0,0,16.13,27.95,27.93,27.93,0,0,0-9.2,1.94,28.5,28.5,0,0,0-7.08,4,29.77,29.77,0,0,0-11.5,22c0,.54,0,1.08,0,1.62v13.29L60,144.53a98.07,98.07,0,0,0,80.32,0l2.69-1.21V130c0-.77,0-1.54-.09-2.29A29.91,29.91,0,0,0,141,119.2ZM75,72.44c0-14.29,11.28-25.91,25.15-25.91s25.15,11.62,25.15,25.91a26.07,26.07,0,0,1-13.09,22.73L100.18,102,88.12,95.17A26.07,26.07,0,0,1,75,72.44Zm62,67a92,92,0,0,1-73.7,0V130c0-.39,0-.78,0-1.18v-.14a23.93,23.93,0,0,1,1.34-6.77,23.58,23.58,0,0,1,7.83-10.83,22.5,22.5,0,0,1,5.61-3.19,21.85,21.85,0,0,1,7.25-1.53l14.94-.61,14.61.61A22.46,22.46,0,0,1,127.71,111a23.56,23.56,0,0,1,7.72,10.32,24.25,24.25,0,0,1,1.53,6.83c0,.62.07,1.23.07,1.85Z" transform="translate(-3.18 -32.28)"/>
    <path class="cls-1" d="M173.15,84a27.69,27.69,0,0,0,13.93-24.14c0-15.19-12.07-27.55-26.9-27.55-14.16,0-25.81,11.27-26.82,25.52h0c-.06.67-.08,1.34-.08,2a27.91,27.91,0,0,0,3.05,12.74A27.44,27.44,0,0,0,147.21,84a24.63,24.63,0,0,0-15.34,6.19,25.49,25.49,0,0,0-4,4.48,26.07,26.07,0,0,0-1.77,2.92l.39.17.37.17L127,98l.06,0a49.94,49.94,0,0,1,5,2.66.05.05,0,0,0,0,0l.38.25c.17.1.34.21.49.32a34.44,34.44,0,0,1,13.65,19.18,35,35,0,0,1,1.28,8.19,84.64,84.64,0,0,0,46.85-6.55l2.33-1V109.56C197.18,95.77,186.49,84.5,173.15,84ZM141.67,69.84a22.13,22.13,0,0,1-2.39-10c0-.58,0-1.06.06-1.49l0-.26v0c.89-11.09,10-19.75,20.82-19.75,11.52,0,20.9,9.67,20.9,21.55a21.7,21.7,0,0,1-10.89,18.92l-10,5.67-10-5.67A21.3,21.3,0,0,1,141.67,69.84Zm49.51,47.3a77.94,77.94,0,0,1-31,6.37c-2.25,0-4.49-.09-6.7-.28a40.95,40.95,0,0,0-17-26.87c-.23-.17-.48-.33-.73-.49l-.46-.29-.28-.19c.25-.25.51-.49.77-.73A18.52,18.52,0,0,1,147.46,90L160,89.45l12.93.52a19.27,19.27,0,0,1,18.27,19.59Z" transform="translate(-3.18 -32.28)"/>
    <path class="cls-1" d="M67,101.44l.41-.28c.2-.14.41-.28.62-.4A51.39,51.39,0,0,1,73.17,98l.1,0c.21-.08.41-.17.6-.26l.1,0a25.64,25.64,0,0,0-4.69-6.14,24.68,24.68,0,0,0-16.13-6.93A27.46,27.46,0,0,0,64,73.22a28,28,0,0,0,3-12.73c0-.88,0-1.75-.12-2.6-1.28-14-12.81-25-26.78-25-14.83,0-26.9,12.37-26.9,27.56A27.66,27.66,0,0,0,27.21,84.62c-13.34.54-24,11.81-24,25.6v11.47l2.33,1a83.91,83.91,0,0,0,34.67,7.43,84.73,84.73,0,0,0,12.17-.87A34.8,34.8,0,0,1,67,101.44Zm-47.75-41c0-11.89,9.38-21.56,20.9-21.56C50.84,38.93,60,47.5,61,58.44c.06.67.09,1.36.09,2a21.78,21.78,0,0,1-2.39,10,21.33,21.33,0,0,1-8.5,8.9l-10,5.66-10-5.66A21.69,21.69,0,0,1,19.28,60.49Zm28.36,59.16a37.63,37.63,0,0,0-.86,4.25q-3.29.27-6.6.27a77.87,77.87,0,0,1-31-6.37v-7.58a19.29,19.29,0,0,1,18.27-19.6l12.68-.52,12.78.52a18.65,18.65,0,0,1,12,5l-.81.53-.49.33A40.42,40.42,0,0,0,47.64,119.65Z" transform="translate(-3.18 -32.28)"/>
  </g>
</svg>
