<svg id="navicon" xmlns="http://www.w3.org/2000/svg" viewBox="0 0 112.55 147.89">
  <defs>
    <style>
      .cls-1 {
        fill: #0078a0;
      }
    </style>
  </defs>
  <title>user</title>
  <path class="cls-1" d="M119.9,102.79a42.1,42.1,0,0,0,21.19-36.71c0-23.11-18.35-41.91-40.92-41.91S59.26,43,59.26,66.09a42.1,42.1,0,0,0,21.19,36.71c-20.29.81-36.55,18-36.55,38.93v17.46l3.54,1.59a128.75,128.75,0,0,0,105.48,0l3.54-1.59V141.72C156.45,120.75,140.19,103.6,119.9,102.79ZM71.26,66.09c0-16.49,13-29.91,28.92-29.91s28.92,13.42,28.92,29.91S116.12,96,100.18,96,71.26,82.58,71.26,66.09Zm73.19,85.26a116.81,116.81,0,0,1-88.55,0v-9.63c0-14.87,11.69-27,26.05-27H118.4c14.37,0,26.05,12.1,26.05,27Z" transform="translate(-43.9 -24.18)"/>
</svg>
