<svg id="navicon" xmlns="http://www.w3.org/2000/svg" viewBox="0 0 181 124.82">
  <defs>
    <style>
      .cls-1 {
        fill: #0078a0;
      }
    </style>
  </defs>
  <title>men</title>
  <g>
    <path class="cls-1" d="M82.13,108.43a27.5,27.5,0,1,0-9.45-20.75A27.37,27.37,0,0,0,82.13,108.43Z" transform="translate(-9.18 -45.18)"/>
    <circle class="cls-1" cx="145" cy="27" r="25"/>
    <path class="cls-1" d="M158.43,100.18h-8.5a31.7,31.7,0,0,0-24.17,11.23,47,47,0,0,1,25.58,35.53c.94,0,1.89.06,2.84.06a74.54,74.54,0,0,0,36-9.2v-5.87A31.85,31.85,0,0,0,158.43,100.18Z" transform="translate(-9.18 -45.18)"/>
    <circle class="cls-1" cx="36" cy="25" r="25"/>
    <path class="cls-1" d="M119.82,121.89a34.46,34.46,0,0,0-15-3.4H95.5a34.44,34.44,0,0,0-15.31,3.57,35.22,35.22,0,0,0-18,21,34.52,34.52,0,0,0-1.58,10.36v6.46a82.58,82.58,0,0,0,79.22,0v-6.46a34.62,34.62,0,0,0-.93-8A35.18,35.18,0,0,0,119.82,121.89Z" transform="translate(-9.18 -45.18)"/>
    <path class="cls-1" d="M75,111.2a31.76,31.76,0,0,0-25.59-13h-8.5A31.85,31.85,0,0,0,9.18,129.93v5.87a74.54,74.54,0,0,0,36,9.2c1.4,0,2.8,0,4.18-.12A47.06,47.06,0,0,1,75,111.2Z" transform="translate(-9.18 -45.18)"/>
  </g>
</svg>
