<svg id="Layer_3" data-name="Layer 3" xmlns="http://www.w3.org/2000/svg" viewBox="0 0 153.28 163">
  <defs>
    <style>
      .cls-1 {
        fill: #006837;
      }
    </style>
  </defs>
  <title>user-delete</title>
  <g>
    <path class="cls-1" d="M117.8,105.36a20.74,20.74,0,0,1,4.6-4.1,42.16,42.16,0,0,0,18.7-35.17c0-23.11-18.36-41.91-40.92-41.91S59.26,43,59.26,66.09a42.11,42.11,0,0,0,21.2,36.71c-20.29.81-36.56,18-36.56,38.92v17.46l3.54,1.59a127.62,127.62,0,0,0,52.74,11.3q4.41,0,8.76-.3A52.69,52.69,0,0,1,103.6,160c-1.14,0-2.28.05-3.42.05a115.67,115.67,0,0,1-44.28-8.72v-9.63c0-14.86,11.69-27,26.05-27H108.5a3.41,3.41,0,0,0,2.64-1.25ZM71.26,66.09c0-16.49,13-29.91,28.92-29.91S129.1,49.6,129.1,66.09,116.12,96,100.18,96,71.26,82.58,71.26,66.09Z" transform="translate(-43.9 -24.18)"/>
    <path class="cls-1" d="M154.18,101.18a43,43,0,1,0,43,43A42.65,42.65,0,0,0,154.18,101.18Zm0,77.08a33.94,33.94,0,0,1-23.84-9.75A34.41,34.41,0,0,1,123,157.85a34.08,34.08,0,1,1,31.22,20.41Z" transform="translate(-43.9 -24.18)"/>
    <path class="cls-1" d="M173.9,158l-13.65-13.79,13.65-13.79,3-3a2.82,2.82,0,0,0,0-4l-2.33-2.3a2.78,2.78,0,0,0-2-.82,2.81,2.81,0,0,0-2,.83l-3,3L156,135.78l-2,2.06-13.39-13.52-3.16-3.2a2.77,2.77,0,0,0-2-.83,2.58,2.58,0,0,0-1,.19,2.68,2.68,0,0,0-1,.62l-2.34,2.31a2.83,2.83,0,0,0,0,4l3.2,3.23,10.15,10.26,3.26,3.29-3.24,3.27-6.15,6.21-4,4.07-3.2,3.23a2.82,2.82,0,0,0,0,4l2.33,2.31a2.86,2.86,0,0,0,.43.35,2.79,2.79,0,0,0,1.55.46,2.85,2.85,0,0,0,2-.83l.93-.94,2.23-2.25L154,150.52l2.49,2.52,11.06,11.17,3,3a2.85,2.85,0,0,0,2,.83,2.81,2.81,0,0,0,2-.81l2.33-2.31a2.81,2.81,0,0,0,0-4Z" transform="translate(-43.9 -24.18)"/>
  </g>
</svg>
