<svg id="Layer_3" data-name="Layer 3" xmlns="http://www.w3.org/2000/svg" viewBox="0 0 153.28 163">
  <defs>
    <style>
      .cls-1 {
        fill: #006837;
      }
    </style>
  </defs>
  <title>user-delete-solid</title>
  <g>
    <path class="cls-1" d="M121,102.86c-.38,0,.25,0-.13-.06,12.63-7.15,20.2-20.92,20.2-36.71,0-23.11-18.36-41.91-40.92-41.91S59.26,43,59.26,66.09a42.11,42.11,0,0,0,21.2,36.71c-20.29.81-36.56,18-36.56,38.92v17.46l3.54,1.59a127.62,127.62,0,0,0,52.74,11.3q4.41,0,8.76-.3a52.9,52.9,0,0,1,1.18-57A53.46,53.46,0,0,1,121,102.86Z" transform="translate(-43.9 -24.18)"/>
    <path class="cls-1" d="M154.18,101.18a43,43,0,1,0,43,43A42.65,42.65,0,0,0,154.18,101.18Zm0,77.08a33.94,33.94,0,0,1-23.84-9.75A34.41,34.41,0,0,1,123,157.85a34.08,34.08,0,1,1,31.22,20.41Z" transform="translate(-43.9 -24.18)"/>
    <path class="cls-1" d="M173.9,158l-13.65-13.79,13.65-13.79,3-3a2.82,2.82,0,0,0,0-4l-2.33-2.3a2.78,2.78,0,0,0-2-.82,2.81,2.81,0,0,0-2,.83l-3,3L156,135.78l-2,2.06-13.39-13.52-3.16-3.2a2.77,2.77,0,0,0-2-.83,2.58,2.58,0,0,0-1,.19,2.68,2.68,0,0,0-1,.62l-2.34,2.31a2.83,2.83,0,0,0,0,4l3.2,3.23,10.15,10.26,3.26,3.29-3.24,3.27-6.15,6.21-4,4.07-3.2,3.23a2.82,2.82,0,0,0,0,4l2.33,2.31a2.86,2.86,0,0,0,.43.35,2.79,2.79,0,0,0,1.55.46,2.85,2.85,0,0,0,2-.83l.93-.94,2.23-2.25L154,150.52l2.49,2.52,11.06,11.17,3,3a2.85,2.85,0,0,0,2,.83,2.81,2.81,0,0,0,2-.81l2.33-2.31a2.81,2.81,0,0,0,0-4Z" transform="translate(-43.9 -24.18)"/>
  </g>
</svg>
